<svg width="240" height="240" viewBox="0 0 240 240" fill="none" xmlns="http://www.w3.org/2000/svg">
<path d="M225 120C225 179.647 176.647 228 117 228C57.3533 228 9 179.647 9 120C9 60.3532 57.3533 12 117 12C176.647 12 225 60.3532 225 120Z" fill="url(#paint0_linear_15877_13481)"/>
<mask id="mask0_15877_13481" style="mask-type:alpha" maskUnits="userSpaceOnUse" x="42" y="147" width="24" height="31">
<path d="M44.1999 166.413C46.6406 163.624 53.0216 156.387 57.4569 150.69C59.6249 147.905 64.1839 145.918 65.0532 149.338C65.5198 151.174 65.3513 153.659 65.5761 156.567C66.0221 162.339 61.2685 170.591 53.5861 175.708C45.9038 180.825 39.4246 171.871 44.1999 166.413Z" fill="url(#paint1_linear_15877_13481)"/>
</mask>
<g mask="url(#mask0_15877_13481)">
<path d="M44.1999 166.413C46.6406 163.624 53.0216 156.387 57.4569 150.69C59.6249 147.905 64.1839 145.918 65.0532 149.338C65.5198 151.174 65.3513 153.659 65.5761 156.567C66.0221 162.339 61.2685 170.591 53.5861 175.708C45.9038 180.825 39.4246 171.871 44.1999 166.413Z" fill="url(#paint2_linear_15877_13481)"/>
<path d="M44.1999 166.413C46.6406 163.624 53.0216 156.387 57.4569 150.69C59.6249 147.905 64.1839 145.918 65.0532 149.338C65.5198 151.174 65.3513 153.659 65.5761 156.567C66.0221 162.339 61.2685 170.591 53.5861 175.708C45.9038 180.825 39.4246 171.871 44.1999 166.413Z" fill="url(#paint3_linear_15877_13481)"/>
<path d="M42.2101 177.77C47.0729 179.32 59.1896 165.981 65.2332 159.266C57.3569 185.598 46.1082 182.572 40.8753 177.619C39.2941 177.023 37.3473 176.219 42.2101 177.77Z" fill="url(#paint4_linear_15877_13481)"/>
</g>
<path d="M203.867 165.253C196.391 164.615 191.113 173.315 189.409 177.745C186.978 183.913 187.194 188.456 187.607 189.957C198.004 181.911 202.779 170.135 203.867 165.253Z" fill="url(#paint5_linear_15877_13481)"/>
<path d="M197.483 157.563C187.849 158.178 182.796 170.257 181.473 176.219C179.558 184.53 180.702 190.27 181.513 192.1C193.205 179.877 198.292 167.88 197.483 157.563Z" fill="url(#paint6_linear_15877_13481)"/>
<path d="M215.085 170.015C205.869 167.141 196.827 176.61 193.458 181.704C188.695 188.78 187.709 194.548 187.811 196.548C203.104 189.32 212.147 179.938 215.085 170.015Z" fill="url(#paint7_linear_15877_13481)"/>
<mask id="mask1_15877_13481" style="mask-type:alpha" maskUnits="userSpaceOnUse" x="188" y="173" width="36" height="20">
<path d="M223.078 175.352C215.054 169.673 203.321 176.004 198.458 179.879C191.621 185.236 188.853 190.513 188.324 192.482C205.407 190.286 218.612 180.147 223.078 175.352Z" fill="#B4504B"/>
</mask>
<g mask="url(#mask1_15877_13481)">
<path d="M223.078 175.352C215.054 169.673 203.321 176.004 198.458 179.879C191.621 185.236 188.853 190.513 188.324 192.482C205.407 190.286 218.612 180.147 223.078 175.352Z" fill="url(#paint8_linear_15877_13481)"/>
</g>
<path d="M134.696 167.284C141.474 167.192 145.667 175.373 146.916 179.475C148.708 185.19 148.219 189.269 147.751 190.595C138.902 182.673 135.361 171.754 134.696 167.284Z" fill="url(#paint9_linear_15877_13481)"/>
<path d="M140.945 160.767C149.587 161.945 153.359 173.155 154.165 178.613C155.354 186.226 153.953 191.323 153.103 192.92C143.358 181.151 139.55 170.012 140.945 160.767Z" fill="url(#paint10_linear_15877_13481)"/>
<path d="M124.28 170.85C132.77 168.856 140.305 177.973 143.012 182.781C146.846 189.464 147.362 194.726 147.141 196.521C133.828 189.019 126.286 179.981 124.28 170.85Z" fill="url(#paint11_linear_15877_13481)"/>
<mask id="mask2_15877_13481" style="mask-type:alpha" maskUnits="userSpaceOnUse" x="116" y="173" width="31" height="20">
<path d="M116.732 175.143C124.33 170.544 134.493 177.007 138.624 180.813C144.439 186.082 146.592 191.016 146.941 192.824C131.69 189.741 120.447 179.752 116.732 175.143Z" fill="#B4504B"/>
</mask>
<g mask="url(#mask2_15877_13481)">
<path d="M116.732 175.143C124.33 170.544 134.493 177.007 138.624 180.813C144.439 186.082 146.592 191.016 146.941 192.824C131.69 189.741 120.447 179.752 116.732 175.143Z" fill="url(#paint12_linear_15877_13481)"/>
</g>
<path d="M64.048 181.137C62.9629 182.455 61.3156 186.721 63.4073 193.244" stroke="#856149"/>
<mask id="mask3_15877_13481" style="mask-type:alpha" maskUnits="userSpaceOnUse" x="61" y="193" width="9" height="16">
<path d="M69.4147 199.683C70.3875 193.91 65.703 192.907 63.2391 193.127C57.4526 198.276 64.5359 205.35 69.0748 208.452C69.1425 208.498 69.2524 208.399 69.2248 208.322C68.8717 207.332 68.5694 204.699 69.4147 199.683Z" fill="#856149"/>
</mask>
<g mask="url(#mask3_15877_13481)">
<path d="M69.4147 199.683C70.3875 193.91 65.703 192.907 63.2391 193.127C57.4526 198.276 64.5359 205.35 69.0748 208.452C69.1425 208.498 69.2524 208.399 69.2248 208.322C68.8717 207.332 68.5694 204.699 69.4147 199.683Z" fill="#C7926E"/>
<g style="mix-blend-mode:multiply" opacity="0.4">
<path d="M63.4233 193.163C61.2433 198.854 66.537 205.62 69.4563 208.292C68.6376 208.896 65.7425 208.714 60.7122 203.146C55.6819 197.579 60.4236 194.171 63.4233 193.163Z" fill="url(#paint13_linear_15877_13481)"/>
</g>
</g>
<mask id="mask4_15877_13481" style="mask-type:alpha" maskUnits="userSpaceOnUse" x="90" y="135" width="36" height="21">
<path d="M115.629 136.182C112.037 137.851 102.704 142.232 95.5325 145.078C92.0269 146.469 88.6249 150.551 91.8739 152.467C93.6178 153.494 96.2167 154.065 99.1328 155.165C104.921 157.35 114.808 154.942 122.356 148.592C129.904 142.242 122.656 132.916 115.629 136.182Z" fill="url(#paint14_linear_15877_13481)"/>
</mask>
<g mask="url(#mask4_15877_13481)">
<path d="M115.629 136.182C112.037 137.851 102.704 142.232 95.5325 145.078C92.0269 146.469 88.6249 150.551 91.8739 152.467C93.6178 153.494 96.2167 154.065 99.1328 155.165C104.921 157.35 114.808 154.942 122.356 148.592C129.904 142.242 122.656 132.916 115.629 136.182Z" fill="url(#paint15_linear_15877_13481)"/>
<path d="M115.629 136.182C112.037 137.851 102.704 142.232 95.5325 145.078C92.0269 146.469 88.6249 150.551 91.8739 152.467C93.6178 153.494 96.2167 154.065 99.1328 155.165C104.921 157.35 114.808 154.942 122.356 148.592C129.904 142.242 122.656 132.916 115.629 136.182Z" fill="url(#paint16_linear_15877_13481)"/>
<path d="M127.874 137.538C128.011 142.991 110.701 151.43 102.005 155.621C131.373 155.419 131.635 142.974 128.119 136.124C127.981 134.324 127.738 132.086 127.874 137.538Z" fill="url(#paint17_linear_15877_13481)"/>
</g>
<path fill-rule="evenodd" clip-rule="evenodd" d="M181 123C208.614 123 231 103.972 231 80.5C231 57.0279 208.614 38 181 38C153.386 38 131 57.0279 131 80.5C131 87.8958 133.223 94.8504 137.131 100.908L136 119C139.3 117.646 145.153 115.888 151.895 115.062C160.093 120.058 170.142 123 181 123Z" fill="#F3F3F3"/>
<path d="M152.5 108V108.5H152.931L152.994 108.074L152.5 108ZM154 98V97.5H153.569L153.506 97.9258L154 98ZM157.5 98V98.5H157.847L157.968 98.1756L157.5 98ZM165 78L165.291 77.5931L164.761 77.2145L164.532 77.8244L165 78ZM168.5 80.5L168.209 80.9069L168.66 81.2285L168.934 80.7481L168.5 80.5ZM172.5 73.5L172.854 73.1464L172.391 72.6836L172.066 73.2519L172.5 73.5ZM174.5 75.5L174.146 75.8536L174.463 76.17L174.812 75.8904L174.5 75.5ZM177 73.5L177.312 73.8904L177.391 73.8277L177.439 73.7394L177 73.5ZM180 68L180.203 67.5431L179.782 67.3559L179.561 67.7606L180 68ZM184.5 70L184.297 70.4569L184.697 70.6345L184.926 70.262L184.5 70ZM188.5 63.5L188.637 63.0192L188.273 62.9151L188.074 63.238L188.5 63.5ZM192 64.5L192.434 64.2519L192.333 64.0752L192.137 64.0192L192 64.5ZM194 68L193.566 68.2481L193.777 68.6176L194.176 68.4682L194 68ZM198 66.5L198.176 66.9682L198.393 66.8867L198.471 66.6682L198 66.5ZM200.5 59.5L200.658 59.0257L200.194 58.8709L200.029 59.3318L200.5 59.5ZM203.5 60.5L203.342 60.9743L203.679 61.0868L203.896 60.8049L203.5 60.5ZM208.5 54L203.163 56.203L207.74 59.7232L208.5 54ZM146 108.5H152.5V107.5H146V108.5ZM152.994 108.074L154.494 98.0742L153.506 97.9258L152.006 107.926L152.994 108.074ZM154 98.5H157.5V97.5H154V98.5ZM157.968 98.1756L165.468 78.1756L164.532 77.8244L157.032 97.8244L157.968 98.1756ZM164.709 78.4069L168.209 80.9069L168.791 80.0931L165.291 77.5931L164.709 78.4069ZM168.934 80.7481L172.934 73.7481L172.066 73.2519L168.066 80.2519L168.934 80.7481ZM172.146 73.8536L174.146 75.8536L174.854 75.1464L172.854 73.1464L172.146 73.8536ZM174.812 75.8904L177.312 73.8904L176.688 73.1096L174.188 75.1096L174.812 75.8904ZM177.439 73.7394L180.439 68.2394L179.561 67.7606L176.561 73.2606L177.439 73.7394ZM179.797 68.4569L184.297 70.4569L184.703 69.5431L180.203 67.5431L179.797 68.4569ZM184.926 70.262L188.926 63.762L188.074 63.238L184.074 69.738L184.926 70.262ZM188.363 63.9808L191.863 64.9808L192.137 64.0192L188.637 63.0192L188.363 63.9808ZM191.566 64.7481L193.566 68.2481L194.434 67.7519L192.434 64.2519L191.566 64.7481ZM194.176 68.4682L198.176 66.9682L197.824 66.0318L193.824 67.5318L194.176 68.4682ZM198.471 66.6682L200.971 59.6682L200.029 59.3318L197.529 66.3318L198.471 66.6682ZM200.342 59.9743L203.342 60.9743L203.658 60.0257L200.658 59.0257L200.342 59.9743ZM203.896 60.8049L206.153 57.8717L205.36 57.262L203.104 60.1951L203.896 60.8049Z" fill="#00E6B3"/>
<path d="M144 87.5L218.5 87" stroke="#00E6B3"/>
<path d="M96.3715 36.8139C96.3513 36.5206 96.744 36.4492 96.8284 36.7308L97.5363 39.0937C98.4504 42.1448 101.208 44.18 104.206 44.0165L106.528 43.8899C106.805 43.8749 106.881 44.292 106.617 44.3754L104.399 45.0744C101.535 45.9769 99.6702 48.8526 99.8888 52.0302L100.058 54.4911C100.078 54.7844 99.6855 54.8558 99.6011 54.5741L98.8932 52.2113C97.979 49.1602 95.2215 47.125 92.2231 47.2884L89.9011 47.4151C89.6243 47.4301 89.5485 47.0129 89.8128 46.9296L92.0308 46.2306C94.8948 45.3281 96.7593 42.4524 96.5407 39.2747L96.3715 36.8139Z" fill="#FFC31F"/>
<path d="M35.0976 148.105C35.0853 147.926 35.3244 147.882 35.3758 148.054L35.8069 149.493C36.3636 151.351 38.0427 152.59 39.8685 152.49L41.2824 152.413C41.451 152.404 41.4972 152.658 41.3362 152.709L39.9856 153.135C38.2417 153.684 37.1063 155.435 37.2394 157.37L37.3425 158.869C37.3547 159.047 37.1156 159.091 37.0642 158.919L36.6331 157.48C36.0765 155.622 34.3974 154.383 32.5716 154.483L31.1576 154.56C30.9891 154.569 30.9429 154.315 31.1039 154.264L32.4545 153.839C34.1984 153.289 35.3337 151.538 35.2007 149.603L35.0976 148.105Z" fill="#FFC31F"/>
<path d="M112.413 50.7395C112.405 50.6199 112.565 50.5908 112.599 50.7056L112.888 51.6689C113.26 52.9128 114.384 53.7424 115.607 53.6758L116.553 53.6242C116.666 53.618 116.697 53.7881 116.589 53.8221L115.685 54.107C114.518 54.475 113.758 55.6473 113.847 56.9427L113.916 57.9459C113.924 58.0655 113.764 58.0947 113.729 57.9798L113.441 57.0165C113.068 55.7727 111.944 54.943 110.722 55.0097L109.775 55.0613C109.662 55.0674 109.631 54.8973 109.739 54.8634L110.643 54.5784C111.811 54.2105 112.571 53.0381 112.482 51.7427L112.413 50.7395Z" fill="#FFC31F"/>
<mask id="mask5_15877_13481" style="mask-type:alpha" maskUnits="userSpaceOnUse" x="21" y="57" width="28" height="28">
<circle cx="35.1906" cy="71.1548" r="13.8095" fill="#E9AD16"/>
</mask>
<g mask="url(#mask5_15877_13481)">
<circle cx="35.1906" cy="71.1548" r="13.8095" fill="#F7C028"/>
<g style="mix-blend-mode:lighten">
<path d="M45.5478 71.4996C45.7204 71.8449 46.9287 78.577 39.3335 80.6484C41.5775 79.6127 45.9621 76.333 45.5478 71.4996Z" fill="#FFF68E"/>
</g>
<g style="mix-blend-mode:lighten">
<rect x="13.4407" y="67.2881" width="31.1194" height="5.44696" transform="rotate(-32.0255 13.4407 67.2881)" fill="#FEF694" fill-opacity="0.4"/>
</g>
<g style="mix-blend-mode:lighten">
<rect x="16.5479" y="73.8475" width="31.1194" height="1.14942" transform="rotate(-32.0255 16.5479 73.8475)" fill="#FEF694" fill-opacity="0.4"/>
</g>
<g style="mix-blend-mode:lighten">
<rect x="18.9644" y="75.2289" width="31.1194" height="2.80871" transform="rotate(-32.0255 18.9644 75.2289)" fill="#FEF694" fill-opacity="0.4"/>
</g>
<g style="mix-blend-mode:lighten">
<path d="M24.8333 61.6608C28.6309 59.2441 33.5332 56.7239 42.0951 58.381C37.607 56.4822 29.6666 56.2751 24.8333 61.6608Z" fill="#FFF68E"/>
</g>
<mask id="mask6_15877_13481" style="mask-type:alpha" maskUnits="userSpaceOnUse" x="24" y="60" width="22" height="22">
<circle cx="35.1904" cy="71.1544" r="10.7024" fill="#F0A110"/>
</mask>
<g mask="url(#mask6_15877_13481)">
<circle cx="35.1904" cy="71.1544" r="10.7024" fill="#F0A110"/>
<path d="M30.8842 61.0914C25.613 65.0849 22.4182 74.0301 28.6479 80.2598C25.2403 78.2365 20.3416 67.0017 30.8842 61.0914Z" fill="#AF361F"/>
</g>
</g>
<g style="mix-blend-mode:overlay" opacity="0.4" clip-path="url(#clip0_15877_13481)">
<g clip-path="url(#clip1_15877_13481)">
<path d="M33.7528 67.0068L29.443 71.3146C29.4049 71.3527 29.4051 71.4146 29.4435 71.4524L31.0054 72.9913C31.0435 73.0287 31.1046 73.0285 31.1423 72.9908L33.8008 70.3336C33.838 70.2964 33.8979 70.2956 33.9362 70.3316L35.1549 71.4808L32.2366 74.3267C32.1982 74.364 32.1974 74.4254 32.2347 74.4638L33.7527 76.0257C33.7895 76.0636 33.8499 76.0651 33.8886 76.0291L35.1381 74.8679C35.175 74.8335 35.2322 74.8332 35.2696 74.8671L36.4709 75.9587C36.5093 75.9936 36.5683 75.9922 36.605 75.9555L40.8916 71.6709C40.9295 71.633 40.9295 71.5715 40.8916 71.5336L39.3527 69.9954C39.3148 69.9576 39.2536 69.9574 39.2156 69.9951L36.534 72.6523C36.4965 72.6894 36.4362 72.6899 36.3982 72.6533L35.1792 71.4808L38.0974 68.6588C38.1359 68.6217 38.137 68.5605 38.1 68.5219L36.5826 66.9382C36.5454 66.8994 36.4837 66.8982 36.445 66.9355L35.221 68.1152C35.1839 68.1509 35.1253 68.1515 35.0875 68.1165L33.8875 67.0043C33.8493 66.9688 33.7897 66.9699 33.7528 67.0068Z" fill="white"/>
</g>
</g>
<path d="M42.0123 57.0783C42.0239 56.9739 42.1664 56.9739 42.1781 57.0783L42.2759 57.9537C42.4021 59.084 43.2409 59.9752 44.3047 60.1094L45.1286 60.2132C45.2269 60.2256 45.2269 60.377 45.1286 60.3894L44.3047 60.4933C43.2409 60.6274 42.4021 61.5186 42.2759 62.649L42.1781 63.5244C42.1664 63.6288 42.0239 63.6288 42.0123 63.5244L41.9145 62.649C41.7883 61.5186 40.9495 60.6274 39.8856 60.4933L39.0617 60.3894C38.9635 60.377 38.9635 60.2256 39.0617 60.2132L39.8856 60.1094C40.9495 59.9752 41.7883 59.084 41.9145 57.9537L42.0123 57.0783Z" fill="white"/>
<path d="M21.5121 69.4675C21.5179 69.4154 21.5892 69.4154 21.595 69.4675L21.6439 69.9052C21.707 70.4704 22.1264 70.916 22.6584 70.9831L23.0703 71.035C23.1194 71.0412 23.1194 71.1169 23.0703 71.1231L22.6584 71.1751C22.1264 71.2421 21.707 71.6877 21.6439 72.2529L21.595 72.6906C21.5892 72.7428 21.5179 72.7428 21.5121 72.6906L21.4632 72.2529C21.4001 71.6877 20.9807 71.2421 20.4488 71.1751L20.0368 71.1231C19.9877 71.1169 19.9877 71.0412 20.0368 71.035L20.4488 70.9831C20.9807 70.916 21.4001 70.4704 21.4632 69.9052L21.5121 69.4675Z" fill="white"/>
<path d="M45.8349 77.7308C45.8373 77.709 45.8672 77.709 45.8696 77.7308L45.89 77.9139C45.9164 78.1504 46.0919 78.3368 46.3144 78.3648L46.4867 78.3865C46.5072 78.3891 46.5072 78.4208 46.4867 78.4234L46.3144 78.4451C46.0919 78.4732 45.9164 78.6596 45.89 78.896L45.8696 79.0791C45.8672 79.1009 45.8373 79.1009 45.8349 79.0791L45.8145 78.896C45.7881 78.6596 45.6126 78.4732 45.3901 78.4451L45.2178 78.4234C45.1973 78.4208 45.1973 78.3891 45.2178 78.3865L45.3901 78.3648C45.6126 78.3368 45.7881 78.1504 45.8145 77.9139L45.8349 77.7308Z" fill="white"/>
<path d="M25.9983 79.1076C26.0001 79.0912 26.0225 79.0912 26.0243 79.1076L26.0397 79.2449C26.0595 79.4222 26.191 79.562 26.3579 79.583L26.4872 79.5993C26.5026 79.6013 26.5026 79.625 26.4872 79.627L26.3579 79.6432C26.191 79.6643 26.0595 79.8041 26.0397 79.9814L26.0243 80.1187C26.0225 80.1351 26.0001 80.1351 25.9983 80.1187L25.983 79.9814C25.9632 79.8041 25.8316 79.6643 25.6647 79.6432L25.5355 79.627C25.5201 79.625 25.5201 79.6013 25.5355 79.5993L25.6647 79.583C25.8316 79.562 25.9632 79.4222 25.983 79.2449L25.9983 79.1076Z" fill="white"/>
<path d="M43.2529 77.7623C43.26 77.6985 43.3471 77.6985 43.3543 77.7623L43.414 78.2973C43.4911 78.9881 44.0037 79.5327 44.6539 79.6146L45.1574 79.6781C45.2174 79.6857 45.2174 79.7782 45.1574 79.7858L44.6539 79.8493C44.0037 79.9312 43.4911 80.4759 43.414 81.1666L43.3543 81.7016C43.3471 81.7654 43.26 81.7654 43.2529 81.7016L43.1932 81.1666C43.116 80.4759 42.6034 79.9312 41.9533 79.8493L41.4498 79.7858C41.3898 79.7782 41.3898 79.6857 41.4498 79.6781L41.9533 79.6146C42.6034 79.5327 43.116 78.9881 43.1932 78.2973L43.2529 77.7623Z" fill="white"/>
<mask id="mask7_15877_13481" style="mask-type:alpha" maskUnits="userSpaceOnUse" x="179" y="96" width="46" height="46">
<circle cx="201.988" cy="119.284" r="22.716" fill="#E9AD16"/>
</mask>
<g mask="url(#mask7_15877_13481)">
<circle cx="201.988" cy="119.284" r="22.716" fill="#F7C028"/>
<g style="mix-blend-mode:lighten">
<path d="M219.025 119.851C219.309 120.419 221.297 131.493 208.803 134.901C212.494 133.197 219.706 127.802 219.025 119.851Z" fill="#FFF68E"/>
</g>
<g style="mix-blend-mode:lighten">
<rect x="166.21" y="112.923" width="51.19" height="8.96" transform="rotate(-32.0255 166.21 112.923)" fill="#FEF694" fill-opacity="0.4"/>
</g>
<g style="mix-blend-mode:lighten">
<rect x="171.321" y="123.713" width="51.19" height="1.89075" transform="rotate(-32.0255 171.321 123.713)" fill="#FEF694" fill-opacity="0.4"/>
</g>
<g style="mix-blend-mode:lighten">
<rect x="175.296" y="125.986" width="51.19" height="4.62019" transform="rotate(-32.0255 175.296 125.986)" fill="#FEF694" fill-opacity="0.4"/>
</g>
<g style="mix-blend-mode:lighten">
<path d="M184.951 103.667C191.198 99.6914 199.262 95.5458 213.346 98.2717C205.963 95.1482 192.901 94.8076 184.951 103.667Z" fill="#FFF68E"/>
</g>
<mask id="mask8_15877_13481" style="mask-type:alpha" maskUnits="userSpaceOnUse" x="184" y="101" width="36" height="36">
<circle cx="201.987" cy="119.283" r="17.6049" fill="#F0A110"/>
</mask>
<g mask="url(#mask8_15877_13481)">
<circle cx="201.987" cy="119.283" r="17.6049" fill="#F0A110"/>
<path d="M194.904 102.73C186.233 109.299 180.978 124.014 191.225 134.261C185.62 130.933 177.562 112.452 194.904 102.73Z" fill="#AF361F"/>
</g>
</g>
<g style="mix-blend-mode:overlay" opacity="0.4" clip-path="url(#clip2_15877_13481)">
<g clip-path="url(#clip3_15877_13481)">
<path d="M199.623 112.461L192.533 119.547C192.47 119.609 192.471 119.711 192.534 119.774L195.103 122.305C195.166 122.367 195.266 122.366 195.328 122.304L199.701 117.933C199.763 117.872 199.861 117.871 199.924 117.93L201.929 119.82L197.128 124.502C197.065 124.563 197.064 124.664 197.125 124.727L199.622 127.296C199.683 127.359 199.782 127.361 199.846 127.302L201.901 125.392C201.962 125.335 202.056 125.335 202.118 125.391L204.094 127.186C204.157 127.244 204.254 127.241 204.314 127.181L211.366 120.133C211.428 120.071 211.428 119.969 211.366 119.907L208.834 117.377C208.772 117.315 208.671 117.314 208.609 117.376L204.197 121.747C204.136 121.808 204.037 121.809 203.974 121.749L201.969 119.82L206.769 115.178C206.832 115.117 206.834 115.016 206.774 114.953L204.277 112.348C204.216 112.284 204.115 112.282 204.051 112.343L202.038 114.284C201.977 114.343 201.88 114.344 201.818 114.286L199.844 112.457C199.781 112.398 199.683 112.4 199.623 112.461Z" fill="white"/>
</g>
</g>
<path d="M213.209 96.1287C213.229 95.9571 213.463 95.9571 213.482 96.1287L213.643 97.5687C213.851 99.4281 215.23 100.894 216.98 101.115L218.336 101.286C218.497 101.306 218.497 101.555 218.336 101.575L216.98 101.746C215.23 101.967 213.851 103.433 213.643 105.292L213.482 106.732C213.463 106.904 213.229 106.904 213.209 106.732L213.049 105.292C212.841 103.433 211.461 101.967 209.711 101.746L208.356 101.575C208.194 101.555 208.194 101.306 208.356 101.286L209.711 101.115C211.461 100.894 212.841 99.4281 213.049 97.5687L213.209 96.1287Z" fill="white"/>
<path d="M179.487 116.509C179.497 116.423 179.614 116.423 179.624 116.509L179.704 117.229C179.808 118.158 180.498 118.891 181.373 119.002L182.051 119.087C182.131 119.097 182.131 119.222 182.051 119.232L181.373 119.317C180.498 119.428 179.808 120.161 179.704 121.09L179.624 121.81C179.614 121.896 179.497 121.896 179.487 121.81L179.407 121.09C179.303 120.161 178.613 119.428 177.738 119.317L177.061 119.232C176.98 119.222 176.98 119.097 177.061 119.087L177.738 119.002C178.613 118.891 179.303 118.158 179.407 117.229L179.487 116.509Z" fill="white"/>
<path d="M219.497 130.101C219.502 130.065 219.551 130.065 219.555 130.101L219.588 130.403C219.632 130.791 219.92 131.098 220.286 131.144L220.57 131.18C220.603 131.184 220.603 131.236 220.57 131.241L220.286 131.276C219.92 131.322 219.632 131.629 219.588 132.018L219.555 132.319C219.551 132.355 219.502 132.355 219.497 132.319L219.464 132.018C219.42 131.629 219.132 131.322 218.766 131.276L218.482 131.241C218.449 131.236 218.449 131.184 218.482 131.18L218.766 131.144C219.132 131.098 219.42 130.791 219.464 130.403L219.497 130.101Z" fill="white"/>
<path d="M186.867 132.366C186.87 132.339 186.907 132.339 186.91 132.366L186.935 132.592C186.968 132.884 187.184 133.113 187.459 133.148L187.671 133.175C187.697 133.178 187.697 133.217 187.671 133.22L187.459 133.247C187.184 133.282 186.968 133.512 186.935 133.803L186.91 134.029C186.907 134.056 186.87 134.056 186.867 134.029L186.842 133.803C186.809 133.512 186.593 133.282 186.319 133.247L186.106 133.22C186.081 133.217 186.081 133.178 186.106 133.175L186.319 133.148C186.593 133.113 186.809 132.884 186.842 132.592L186.867 132.366Z" fill="white"/>
<path d="M215.25 130.153C215.262 130.048 215.405 130.048 215.417 130.153L215.515 131.033C215.642 132.169 216.485 133.065 217.555 133.2L218.383 133.305C218.482 133.317 218.482 133.469 218.383 133.482L217.555 133.586C216.485 133.721 215.642 134.617 215.515 135.753L215.417 136.633C215.405 136.738 215.262 136.738 215.25 136.633L215.152 135.753C215.025 134.617 214.182 133.721 213.112 133.586L212.284 133.482C212.185 133.469 212.185 133.317 212.284 133.305L213.112 133.2C214.182 133.065 215.025 132.169 215.152 131.033L215.25 130.153Z" fill="white"/>
<rect x="20" y="188" width="201" height="9" rx="3" fill="#142664"/>
<circle cx="154" cy="52" r="21" fill="#EF437C"/>
<mask id="mask9_15877_13481" style="mask-type:alpha" maskUnits="userSpaceOnUse" x="61" y="143" width="47" height="47">
<path d="M94.1208 189.318L75.9708 189.844C72.5197 189.944 69.1684 188.679 66.6439 186.324C64.2965 184.134 62.8337 181.159 62.5327 177.963L61.5 167L63.5056 150.075L77.6629 145.527L99.9101 143L107.257 171.913C107.747 173.841 107.819 175.852 107.469 177.81C106.306 184.323 100.734 189.127 94.1208 189.318Z" fill="white"/>
</mask>
<g mask="url(#mask9_15877_13481)">
<path d="M94.1208 189.318L75.9708 189.844C72.5197 189.944 69.1684 188.679 66.6439 186.324C64.2965 184.134 62.8337 181.159 62.5327 177.963L61.5 167L63.5056 150.075L77.6629 145.527L99.9101 143L107.257 171.913C107.747 173.841 107.819 175.852 107.469 177.81C106.306 184.323 100.734 189.127 94.1208 189.318Z" fill="url(#paint18_linear_15877_13481)"/>
<path d="M81 187C70.2 189.8 62 172 63.5 151L58 172L63.5 189L89 194.5L108.5 191L103.5 183.5C100.5 183.5 91.8 184.2 81 187Z" fill="url(#paint19_linear_15877_13481)"/>
<path d="M96.5459 146C93.7765 149.512 84.5901 154.754 70.0001 147.621L96.5459 146Z" fill="url(#paint20_linear_15877_13481)"/>
</g>
<path d="M79.2327 192.431L77.7104 186.342C77.2396 184.458 77.0616 182.514 77.1827 180.577L77.3691 177.594C77.4549 176.222 77.9014 174.898 78.6637 173.755C79.8372 171.994 81.6756 170.786 83.7571 170.408L84.725 170.232C85.5691 170.078 86.4329 170.067 87.2808 170.197C90.4276 170.681 92.9548 173.047 93.6455 176.155L94.2902 179.056C94.4298 179.684 94.519 180.323 94.5568 180.965L94.9253 187.23C94.975 188.075 94.9437 188.922 94.8319 189.761L94.5274 192.045C94.1936 194.548 92.7522 196.768 90.6018 198.091L89.8898 198.529C88.3651 199.468 86.52 199.733 84.7929 199.262C83.0157 198.777 81.5292 197.558 80.7054 195.911L79.9928 194.486C79.6652 193.83 79.4104 193.142 79.2327 192.431Z" fill="url(#paint21_linear_15877_13481)"/>
<path d="M100.344 190.914L97.1984 185.483C96.2255 183.803 95.5171 181.984 95.0981 180.088L94.4531 177.17C94.1565 175.828 94.2197 174.432 94.6363 173.122C95.2778 171.106 96.7108 169.437 98.6067 168.499L99.4883 168.062C100.257 167.681 101.084 167.431 101.935 167.322C105.093 166.918 108.176 168.493 109.698 171.289L111.119 173.899C111.427 174.465 111.689 175.054 111.903 175.661L113.989 181.58C114.27 182.378 114.474 183.201 114.598 184.038L114.936 186.317C115.307 188.815 114.535 191.347 112.834 193.213L112.271 193.831C111.065 195.154 109.365 195.918 107.575 195.943C105.733 195.968 103.968 195.208 102.721 193.852L101.642 192.679C101.146 192.14 100.711 191.548 100.344 190.914Z" fill="url(#paint22_linear_15877_13481)"/>
<rect x="152" y="45" width="4" height="21" rx="2" fill="#F8F8F9"/>
<circle cx="154" cy="40" r="2" fill="#F8F8F9"/>
<rect x="145.5" y="87" width="4" height="19" fill="#00E6B3"/>
<rect x="151.5" y="87" width="4" height="9" fill="#00E6B3"/>
<rect width="4" height="3" transform="matrix(1 0 0 -1 166.5 88)" fill="#00E6B3"/>
<rect width="4" height="7" transform="matrix(1 0 0 -1 172.5 87)" fill="#00E6B3"/>
<path d="M190.411 187.051L186.89 149.52L180.78 153.28L183.5 189L189.557 188.135C190.085 188.059 190.461 187.583 190.411 187.051Z" fill="#DB9224"/>
<rect width="4" height="13" transform="matrix(1 0 0 -1 179.5 87)" fill="#00E6B3"/>
<rect width="4" height="18" transform="matrix(1 0 0 -1 186.5 87)" fill="#00E6B3"/>
<rect width="4" height="11" transform="matrix(1 0 0 -1 193.5 87)" fill="#00E6B3"/>
<rect width="4" height="21" transform="matrix(1 0 0 -1 200.5 87)" fill="#00E6B3"/>
<rect width="4" height="16" transform="matrix(1 0 0 -1 207.5 87)" fill="#00E6B3"/>
<rect width="4" height="10" transform="matrix(1 0 0 -1 214.5 87)" fill="#00E6B3"/>
<mask id="mask10_15877_13481" style="mask-type:alpha" maskUnits="userSpaceOnUse" x="20" y="105" width="22" height="22">
<path d="M20.4446 118.841C31.1679 115.704 39.5953 108.239 41.9698 105.233C39.1101 108.853 39.5655 119.621 39.8926 125.468C29.4214 127.913 22.4259 122.982 20.1426 119.606C19.9477 119.317 20.1106 118.938 20.4446 118.841Z" fill="#856149"/>
</mask>
<g mask="url(#mask10_15877_13481)">
<path d="M20.4446 118.841C31.1679 115.704 39.5953 108.239 41.9698 105.233C39.1101 108.853 39.5655 119.621 39.8926 125.468C29.4214 127.913 22.4259 122.982 20.1426 119.606C19.9477 119.317 20.1106 118.938 20.4446 118.841Z" fill="#C7926E"/>
<mask id="mask11_15877_13481" style="mask-type:alpha" maskUnits="userSpaceOnUse" x="18" y="118" width="24" height="11">
<path d="M19.6372 118.909C22.3836 121.241 35.4804 123.034 41.7407 120.714L41.4871 126.461C24.6282 134.295 16.2042 115.995 19.6372 118.909Z" fill="#C28E6C"/>
</mask>
<g mask="url(#mask11_15877_13481)">
<path d="M19.6372 118.909C22.3836 121.241 35.4804 123.034 41.7407 120.714L41.4871 126.461C24.6282 134.295 16.2042 115.995 19.6372 118.909Z" fill="#DCA682"/>
<path d="M39.6732 119.398C29.8979 125.518 21.6569 121.645 18.6001 118.224C20.2622 119.335 32.8769 119.607 39.6732 119.398L41.0256 119.347C40.6081 119.366 40.1553 119.384 39.6732 119.398Z" fill="url(#paint23_linear_15877_13481)"/>
</g>
<g style="mix-blend-mode:multiply" opacity="0.4">
<path d="M25.4128 128.103C34.0418 128.432 39.3347 115.981 40.9026 109.715C41.4563 112.68 42.7989 120.048 43.7391 125.8C44.6793 131.552 31.9133 129.732 25.4128 128.103Z" fill="url(#paint24_linear_15877_13481)"/>
</g>
</g>
<mask id="mask12_15877_13481" style="mask-type:alpha" maskUnits="userSpaceOnUse" x="20" y="81" width="29" height="27">
<path d="M20.8747 81.3866C28.6567 92.8799 42.4019 96.4427 48.1051 96.7483C43.9092 100.981 41.6872 104.647 40.9345 107.808C23.548 106.927 20.2826 89.8944 20.8747 81.3866Z" fill="#A09D9B"/>
</mask>
<g mask="url(#mask12_15877_13481)">
<path d="M20.8747 81.3866C28.6567 92.8799 42.4019 96.4427 48.1051 96.7483C43.9092 100.981 41.6872 104.647 40.9345 107.808C23.548 106.927 20.2826 89.8944 20.8747 81.3866Z" fill="#A09D9B"/>
<path d="M17.3143 99.3407C37.3716 109.406 44.2385 97.739 48.4998 92.3186C48.2276 97.9273 46.8857 109.659 43.6959 111.715C40.5061 113.771 25.0261 103.544 17.3143 99.3407Z" fill="url(#paint25_linear_15877_13481)"/>
<path d="M41.6285 94.9485C39.0772 97.3526 34.3767 103.632 35.9858 109.517" stroke="#5E5E5E" stroke-width="0.269641"/>
<path d="M34.5436 91.8983C31.9922 94.3024 27.2917 100.582 28.9009 106.467" stroke="#5E5E5E" stroke-width="0.269641"/>
<path d="M30.0173 85.8089C25.7367 86.3468 21.0668 94.2983 22.676 100.184" stroke="#5E5E5E" stroke-width="0.269641"/>
<path d="M39.1872 94.9835C30.7997 95.7114 21.2054 87.0521 20.4658 81.1663L39.856 94.8995C43.1279 94.6242 47.5747 94.2557 39.1872 94.9835Z" fill="url(#paint26_linear_15877_13481)"/>
</g>
<mask id="mask13_15877_13481" style="mask-type:alpha" maskUnits="userSpaceOnUse" x="107" y="96" width="25" height="20">
<path d="M130.92 104.693C120.116 104.236 110.154 98.9999 107.198 96.6284C110.758 99.485 113.236 110.141 114.362 115.965C124.769 115.803 130.104 109.226 131.402 105.352C131.511 105.027 131.262 104.707 130.92 104.693Z" fill="#856149"/>
</mask>
<g mask="url(#mask13_15877_13481)">
<path d="M130.92 104.693C120.116 104.236 110.154 98.9999 107.198 96.6284C110.758 99.485 113.236 110.141 114.362 115.965C124.769 115.803 130.104 109.226 131.402 105.352C131.511 105.027 131.262 104.707 130.92 104.693Z" fill="#C7926E"/>
<mask id="mask14_15877_13481" style="mask-type:alpha" maskUnits="userSpaceOnUse" x="112" y="104" width="21" height="14">
<path d="M131.618 104.974C129.587 107.838 118.546 112.323 112.074 111.642L113.7 117.009C131.511 120.342 134.158 101.394 131.618 104.974Z" fill="#C28E6C"/>
</mask>
<g mask="url(#mask14_15877_13481)">
<path d="M131.618 104.974C129.587 107.838 118.546 112.323 112.074 111.642L113.7 117.009C131.511 120.342 134.158 101.394 131.618 104.974Z" fill="#DCA682"/>
<path d="M112.423 112.258C122.873 115.598 130.575 107.909 132.588 104.037C131.227 105.552 118.063 109.136 112.183 110.349L112.423 112.258Z" fill="url(#paint27_linear_15877_13481)"/>
</g>
<g style="mix-blend-mode:multiply" opacity="0.3">
<path d="M110.48 102.66C115.652 108.387 130.419 110.245 134.416 108.245C134.756 107.903 135.079 107.579 135.383 107.276C135.27 107.663 134.933 107.986 134.416 108.245C128.957 113.729 119.145 123.564 112.783 120.986C106.025 118.248 108.432 107.628 110.48 102.66Z" fill="url(#paint28_linear_15877_13481)"/>
</g>
</g>
<mask id="mask15_15877_13481" style="mask-type:alpha" maskUnits="userSpaceOnUse" x="98" y="66" width="27" height="34">
<path d="M122.998 66.6515C118.004 80.541 104.779 87.8283 98.9832 89.6437C104.42 92.901 107.315 96.4778 108.923 99.5369C126.605 94.0539 125.847 75.2617 122.998 66.6515Z" fill="#A09D9B"/>
</mask>
<g mask="url(#mask15_15877_13481)">
<path d="M122.998 66.6515C118.004 80.541 104.779 87.8283 98.9832 89.6437C104.42 92.901 107.315 96.4778 108.923 99.5369C126.605 94.0539 125.847 75.2617 122.998 66.6515Z" fill="#A09D9B"/>
<path d="M113.031 81.461C119.318 79.6157 123.825 70.6228 122.696 66.1461L112.522 81.5893C110.072 82.3154 106.744 83.3063 113.031 81.461Z" fill="url(#paint29_linear_15877_13481)"/>
<path d="M126.596 70.4118C119.435 90.1991 103.444 91.982 99.133 88.6738C100.435 92.9037 103.747 101.601 106.583 102.549C109.42 103.497 127.262 91.9331 126.596 70.4118Z" fill="url(#paint30_linear_15877_13481)"/>
<path d="M114.493 96.9638C113.473 93.6097 109.937 86.6079 103.95 85.4335" stroke="#5E5E5E" stroke-width="0.269641"/>
<path d="M122.249 91.641C121.229 88.287 117.693 81.2852 111.706 80.1108" stroke="#5E5E5E" stroke-width="0.269641"/>
<path d="M126.491 84.3139C125.472 80.9598 121.936 73.958 115.949 72.7836" stroke="#5E5E5E" stroke-width="0.269641"/>
</g>
<mask id="mask16_15877_13481" style="mask-type:alpha" maskUnits="userSpaceOnUse" x="39" y="84" width="78" height="67">
<path d="M40.4797 107.642L40.4696 107.665C38.3945 112.969 39.3677 124.736 40.594 131.312C40.7875 132.35 40.5386 133.505 40.5408 134.561C40.5514 139.673 47.3546 153.881 82.5451 149.459C115.621 145.302 118.31 130.797 115.151 123.771C114.963 123.354 114.901 122.891 114.973 122.439C115.973 116.216 112.396 105.379 109.744 99.8985C106.991 94.2085 94.0023 79.8407 68.9631 85.7077C48.011 90.617 42.4986 103.078 40.4797 107.642Z" fill="#FBFBFB"/>
</mask>
<g mask="url(#mask16_15877_13481)">
<path d="M40.4797 107.642L40.4696 107.665C38.3945 112.969 39.3677 124.736 40.594 131.312C40.7875 132.35 40.5386 133.505 40.5408 134.561C40.5514 139.673 47.3546 153.881 82.5451 149.459C115.621 145.302 118.31 130.797 115.151 123.771C114.963 123.354 114.901 122.891 114.973 122.439C115.973 116.216 112.396 105.379 109.744 99.8985C106.991 94.2085 94.0023 79.8407 68.9631 85.7077C48.011 90.617 42.4986 103.078 40.4797 107.642Z" fill="url(#paint31_linear_15877_13481)"/>
<path d="M82.818 143.133C54.2495 142.131 54.3976 96.0927 72.5374 85.2041C32.7977 88.6325 36.036 117.093 38.5001 143.133C40.4714 163.965 105.07 152.888 113 140.674C100.414 148.908 88.369 143.827 82.818 143.133Z" fill="url(#paint32_linear_15877_13481)"/>
</g>
<mask id="mask17_15877_13481" style="mask-type:alpha" maskUnits="userSpaceOnUse" x="46" y="101" width="61" height="44">
<path d="M66.1178 107.09L67.6856 107.447C69.7075 107.907 71.7846 108.077 73.8544 107.951L74.2598 107.927C77.4445 107.733 80.5481 106.845 83.3525 105.323L84.3104 104.804L87.9269 102.892C89.3268 102.152 90.8492 101.672 92.4203 101.475L93.0288 101.398C94.7582 101.181 96.5212 101.394 98.1503 102.013C99.5174 102.533 100.768 103.332 101.811 104.357C102.712 105.242 103.448 106.28 103.983 107.424L104.263 108.022C104.895 109.371 105.311 110.811 105.497 112.289L105.842 115.034C106.429 119.707 105.491 124.443 103.166 128.538L102.287 130.087C101.333 131.768 100.161 133.314 98.7998 134.686L97.0471 136.454C94.7863 138.733 92.0506 140.486 89.035 141.588L87.3781 142.193L86.1323 142.585C83.1442 143.525 80.0362 144.03 76.9041 144.085L73.5358 144.143C72.2435 144.165 70.9516 144.073 69.6756 143.867L65.6664 143.219C64.2583 142.992 62.8758 142.627 61.5388 142.13L60.9569 141.914C58.3385 140.941 55.9325 139.471 53.8708 137.586C51.8755 135.762 50.2385 133.581 49.044 131.155L48.5428 130.138C47.774 128.577 47.1961 126.929 46.8214 125.23L46.4089 123.359C45.8084 120.637 45.9811 117.8 46.9074 115.17L47.0906 114.65C48.1277 111.705 50.1586 109.214 52.8338 107.605L53.1572 107.411C54.5466 106.575 56.0954 106.039 57.7041 105.837C59.0982 105.662 60.5125 105.741 61.8785 106.069L66.1178 107.09Z" fill="#856149"/>
</mask>
<g mask="url(#mask17_15877_13481)">
<path d="M65.9521 107.163L67.5198 107.519C69.5417 107.98 71.6189 108.149 73.6887 108.024L74.094 107.999C77.2787 107.806 80.3823 106.918 83.1867 105.396L84.1446 104.877L87.7611 102.965C89.1611 102.225 90.6834 101.745 92.2546 101.548L92.863 101.471C94.5924 101.254 96.3554 101.467 97.9845 102.086C99.3516 102.606 100.602 103.405 101.646 104.43C102.547 105.314 103.282 106.353 103.818 107.496L104.098 108.094C104.729 109.444 105.146 110.883 105.331 112.361L105.676 115.107C106.263 119.779 105.325 124.516 103.001 128.611L102.122 130.16C101.168 131.84 99.9949 133.387 98.634 134.759L96.8814 136.526C94.6205 138.806 91.8849 140.559 88.8693 141.661L87.2123 142.266L85.9666 142.658C82.9784 143.598 79.8705 144.103 76.7384 144.157L73.3701 144.216C72.0777 144.238 70.7859 144.146 69.5098 143.94L65.5007 143.292C64.0925 143.065 62.71 142.7 61.373 142.203L60.7911 141.987C58.1727 141.013 55.7667 139.544 53.7051 137.659C51.7098 135.835 50.0728 133.654 48.8783 131.228L48.377 130.21C47.6082 128.649 47.0303 127.002 46.6556 125.302L46.2432 123.432C45.6427 120.709 45.8153 117.873 46.7417 115.243L46.9248 114.723C47.9619 111.778 49.9928 109.287 52.6681 107.678L52.9914 107.484C54.3809 106.648 55.9296 106.112 57.5383 105.91C58.9324 105.735 60.3467 105.813 61.7127 106.142L65.9521 107.163Z" fill="#C7926E"/>
<path d="M64.0828 104.313C54.9689 106.397 47.399 117.524 50.2683 127.382C46.8802 120.243 44.8594 105.315 64.0828 104.313Z" fill="url(#paint33_linear_15877_13481)"/>
<g style="mix-blend-mode:overlay" opacity="0.5">
<path d="M103.092 108.287C102.417 125.628 94.4362 139.105 84.8189 141.292C93.5972 139.781 109.179 129.915 103.092 108.287Z" fill="url(#paint34_linear_15877_13481)"/>
</g>
<path d="M88.2759 108.246C86.0706 106.533 83.6434 109.68 82.4109 112.033C82.1264 112.577 82.5814 113.164 83.1785 113.023C86.7992 112.168 90.2863 109.808 88.2759 108.246Z" fill="#604533"/>
<path d="M62.7219 112.109C64.3463 110.017 67.3046 112.305 69.0092 114.185C69.4212 114.64 69.1258 115.32 68.5123 115.328C64.9744 115.376 61.2377 114.02 62.7219 112.109Z" fill="#604533"/>
<mask id="mask18_15877_13481" style="mask-type:alpha" maskUnits="userSpaceOnUse" x="85" y="114" width="7" height="9">
<ellipse cx="88.3514" cy="118.428" rx="3.10087" ry="4.31425" transform="rotate(-7.16222 88.3514 118.428)" fill="#252525"/>
</mask>
<g mask="url(#mask18_15877_13481)">
<ellipse cx="88.3514" cy="118.428" rx="3.10087" ry="4.31425" transform="rotate(-7.16222 88.3514 118.428)" fill="#252525"/>
<circle cx="88.4832" cy="115.15" r="1.07856" transform="rotate(-7.16222 88.4832 115.15)" fill="white"/>
</g>
<mask id="mask19_15877_13481" style="mask-type:alpha" maskUnits="userSpaceOnUse" x="60" y="117" width="7" height="10">
<ellipse cx="63.5638" cy="121.748" rx="3.10087" ry="4.31425" transform="rotate(-7.16222 63.5638 121.748)" fill="#252525"/>
</mask>
<g mask="url(#mask19_15877_13481)">
<ellipse cx="63.5638" cy="121.748" rx="3.10087" ry="4.31425" transform="rotate(-7.16222 63.5638 121.748)" fill="#252525"/>
<circle cx="63.6956" cy="118.47" r="1.07856" transform="rotate(-7.16222 63.6956 118.47)" fill="white"/>
</g>
<path d="M70.7446 126.802L71.2103 127.494C71.2931 127.617 71.3418 127.76 71.3513 127.908C71.3588 128.025 71.3417 128.142 71.301 128.252L71.2659 128.347C71.0531 128.923 71.2663 129.569 71.7798 129.905L71.9158 129.994C71.9921 130.044 72.0728 130.087 72.1568 130.122L72.4143 130.231C73.0752 130.51 73.7918 130.631 74.5077 130.585L74.6152 130.578C75.1597 130.543 75.6951 130.421 76.2006 130.215L76.2273 130.204L76.9799 129.946C77.4455 129.787 77.9302 129.69 78.4213 129.658C78.9125 129.627 79.4056 129.661 79.8877 129.76L80.1679 129.817C80.4993 129.885 80.8383 129.908 81.1758 129.887C81.8981 129.84 82.5922 129.589 83.1766 129.162L83.365 129.024C83.5876 128.862 83.7819 128.663 83.9399 128.437L84.0361 128.3C84.1419 128.149 84.2202 127.98 84.2673 127.801L84.2921 127.707C84.3704 127.41 84.3408 127.095 84.2087 126.817C84.1376 126.668 84.0956 126.507 84.085 126.342L84.0743 126.176C84.0577 125.917 84.0878 125.657 84.1631 125.409L84.1723 125.378C84.3099 124.925 84.3064 124.44 84.1622 123.988L84.0622 123.675C83.9406 123.294 83.7176 122.954 83.4172 122.69C82.9777 122.303 82.4027 122.107 81.8186 122.145L81.3963 122.172C80.9456 122.201 80.5059 122.324 80.1057 122.533L79.5363 122.832L79.0622 123.108C78.6852 123.328 78.2827 123.501 77.8636 123.622C77.4896 123.731 77.0999 123.799 76.7113 123.824C76.1266 123.861 75.5321 123.805 74.9656 123.656L74.1719 123.447L73.0845 123.23C72.4682 123.107 71.8286 123.244 71.3157 123.607C70.7605 123.999 70.4087 124.619 70.3559 125.297L70.3543 125.318C70.3134 125.842 70.451 126.365 70.7446 126.802Z" fill="#FCA988"/>
<path d="M79.5358 126.75C79.8483 125.567 80.6143 124.089 81.9617 124.837C83.5309 125.709 80.9982 126.475 79.5358 126.75Z" fill="#C77452"/>
<path d="M79.4178 127.298C79.4453 127.13 79.4844 126.944 79.5358 126.75M79.5358 126.75C79.8483 125.567 80.6143 124.089 81.9617 124.837C83.5309 125.709 80.9982 126.475 79.5358 126.75Z" stroke="#B46646" stroke-width="0.269641"/>
<path d="M75.4716 127.091C75.0184 125.978 74.0858 124.633 72.8666 125.532C71.4468 126.58 74.0117 127.008 75.4716 127.091Z" fill="#C77452"/>
<path d="M75.6555 127.61C75.6078 127.451 75.5462 127.274 75.4716 127.091M75.4716 127.091C75.0184 125.978 74.0858 124.633 72.8666 125.532C71.4468 126.58 74.0117 127.008 75.4716 127.091Z" stroke="#B46646" stroke-width="0.269641"/>
<circle cx="99.2884" cy="122.353" r="1.07856" transform="rotate(-7.16222 99.2884 122.353)" fill="#FFF5F5" fill-opacity="0.2"/>
<path d="M92.1393 134.667C96.0655 129.146 97.1499 125.233 98.0195 125.232C99.1064 125.231 99.7438 128.141 92.1393 134.667Z" fill="#FFF5F5" fill-opacity="0.2"/>
<path d="M65.9841 107.107L67.5518 107.463C69.5737 107.924 71.6509 108.093 73.7207 107.968L74.126 107.943C77.3107 107.75 80.4143 106.862 83.2187 105.34L84.1766 104.821L87.7931 102.909C89.1931 102.169 90.7154 101.689 92.2865 101.491L92.895 101.415C94.6244 101.198 96.3874 101.411 98.0165 102.03C99.3836 102.55 100.634 103.349 101.678 104.374C102.579 105.258 103.314 106.297 103.85 107.44L104.13 108.038C104.761 109.387 105.178 110.827 105.363 112.305L105.708 115.051C106.295 119.723 105.357 124.46 103.033 128.555L102.154 130.104C101.2 131.784 100.027 133.331 98.666 134.703L96.9134 136.47C94.6525 138.75 91.9169 140.503 88.9013 141.605L87.2443 142.21L85.9985 142.602C83.0104 143.542 79.9025 144.047 76.7704 144.101L73.4021 144.16C72.1097 144.182 70.8178 144.09 69.5418 143.884L65.5326 143.236C64.1245 143.009 62.742 142.644 61.405 142.147L60.8231 141.931C58.2047 140.957 55.7987 139.488 53.7371 137.603C51.7418 135.779 50.1048 133.598 48.9102 131.172L48.409 130.154C47.6402 128.593 47.0623 126.946 46.6876 125.246L46.2751 123.376C45.6747 120.653 45.8473 117.817 46.7736 115.187L46.9568 114.667C47.9939 111.722 50.0248 109.231 52.7 107.622L53.0234 107.428C54.4129 106.592 55.9616 106.056 57.5703 105.854C58.9644 105.679 60.3787 105.757 61.7447 106.086L65.9841 107.107Z" stroke="url(#paint35_linear_15877_13481)" stroke-width="4.04461"/>
</g>
<mask id="mask20_15877_13481" style="mask-type:alpha" maskUnits="userSpaceOnUse" x="72" y="131" width="14" height="9">
<ellipse cx="78.8735" cy="135.605" rx="6.3255" ry="3.61457" transform="rotate(-5.93256 78.8735 135.605)" fill="white"/>
</mask>
<g mask="url(#mask20_15877_13481)">
<ellipse cx="78.8735" cy="135.605" rx="6.3255" ry="3.61457" transform="rotate(-5.93256 78.8735 135.605)" fill="white"/>
<path d="M72.8831 138.088C74.2883 136.942 78.8026 134.992 85.6183 136.366C84.0181 138.559 79.2307 141.975 72.8831 138.088Z" fill="#FC5A50"/>
</g>
<g clip-path="url(#clip4_15877_13481)">
<path d="M82.168 156.287L78.11 160.343C78.0741 160.379 78.0743 160.437 78.1105 160.472L79.5812 161.921C79.617 161.957 79.6746 161.956 79.7101 161.921L82.2132 159.419C82.2482 159.384 82.3047 159.383 82.3407 159.417L83.4882 160.499L80.7404 163.179C80.7043 163.214 80.7035 163.272 80.7387 163.308L82.168 164.779C82.2026 164.814 82.2594 164.816 82.2959 164.782L83.4724 163.688C83.5072 163.656 83.561 163.656 83.5962 163.688L84.7274 164.715C84.7635 164.748 84.8191 164.747 84.8536 164.712L88.8898 160.678C88.9255 160.642 88.9255 160.585 88.8898 160.549L87.4408 159.1C87.4052 159.065 87.3474 159.065 87.3117 159.1L84.7868 161.602C84.7515 161.637 84.6947 161.638 84.6589 161.603L83.5111 160.499L86.2589 157.842C86.295 157.807 86.2961 157.749 86.2613 157.713L84.8325 156.222C84.7975 156.185 84.7394 156.184 84.703 156.219L83.5505 157.33C83.5156 157.364 83.4604 157.364 83.4248 157.331L82.2949 156.284C82.2589 156.251 82.2028 156.252 82.168 156.287Z" fill="#4343EF"/>
</g>
<path d="M74.5 177C77 172.667 87.5 164.5 93.5 175C88.5 170.326 81.3 170.2 74.5 177Z" fill="url(#paint36_linear_15877_13481)"/>
<path d="M93.5 174.5C95 169 104.114 161.519 110.114 172.019C105.114 167.345 100.3 167.7 93.5 174.5Z" fill="url(#paint37_linear_15877_13481)"/>
<path d="M206 153.5H213" stroke="white" stroke-width="0.918033"/>
<path d="M209.5 150V157" stroke="white" stroke-width="0.918033"/>
<path d="M74 71.9999H80" stroke="white" stroke-width="0.786885"/>
<path d="M77 69V75" stroke="white" stroke-width="0.786885"/>
<path d="M117.797 129.011C117.899 127.911 118.873 127.102 119.973 127.204L131.712 128.293C132.811 128.395 133.62 129.37 133.518 130.47L131.116 156.358C131.014 157.458 130.04 158.267 128.94 158.165L117.202 157.076C116.102 156.974 115.293 156 115.395 154.9L117.797 129.011Z" fill="#142664"/>
<mask id="mask21_15877_13481" style="mask-type:alpha" maskUnits="userSpaceOnUse" x="117" y="129" width="16" height="28">
<rect x="119.403" y="129" width="12.7763" height="26.0164" rx="0.957544" transform="rotate(5.30044 119.403 129)" fill="white"/>
</mask>
<g mask="url(#mask21_15877_13481)">
<rect x="119.403" y="129" width="12.7763" height="26.0164" rx="0.957544" transform="rotate(5.30044 119.403 129)" fill="white"/>
<rect x="119.965" y="128.807" width="3.91231" height="26.543" transform="rotate(-27.5001 119.965 128.807)" fill="#D9D9D9" fill-opacity="0.3"/>
<rect x="118" y="130.53" width="1.14855" height="26.543" transform="rotate(-27.5001 118 130.53)" fill="#D9D9D9" fill-opacity="0.3"/>
<rect x="113" y="137.53" width="1.14855" height="26.543" transform="rotate(-27.5001 113 137.53)" fill="#D9D9D9" fill-opacity="0.3"/>
</g>
<mask id="mask22_15877_13481" style="mask-type:alpha" maskUnits="userSpaceOnUse" x="147" y="151" width="39" height="38">
<path d="M147.88 151.4H185.48L184.341 160.034C183.119 169.304 183.126 178.695 184.362 187.963C184.435 188.512 184.008 189 183.454 189H148.493C148.146 189 147.858 188.735 147.829 188.389C146.944 177.811 146.848 167.182 147.541 156.589L147.88 151.4Z" fill="#FEC618"/>
</mask>
<g mask="url(#mask22_15877_13481)">
<path d="M147.88 151.4H185.48L184.341 160.034C183.119 169.304 183.126 178.695 184.362 187.963C184.435 188.512 184.008 189 183.454 189H148.493C148.146 189 147.858 188.735 147.829 188.389C146.944 177.811 146.848 167.182 147.541 156.589L147.88 151.4Z" fill="#FEC618"/>
<path d="M165 192C173.8 190.8 191.5 164.5 166 155L186 152.5L191 192C181.167 192.5 156.2 193.2 165 192Z" fill="#EEB812"/>
</g>
<path d="M185.894 147.247C174.545 138.79 155.396 142.266 148.039 145.845C146.73 146.481 146.208 147.97 146.533 149.389L149.728 163.311C150.022 164.592 151.162 165.5 152.476 165.5H178.603C180.191 165.5 181.607 164.503 182.143 163.008L186.721 150.23C187.108 149.151 186.813 147.931 185.894 147.247Z" fill="#FEA218"/>
<circle cx="166.21" cy="161.27" r="1.41" fill="#FEC618"/>
<path d="M145.004 134.889L138.401 134.805C138.098 134.802 138.016 135.222 138.299 135.332L144.556 137.773C144.885 137.902 145.248 137.687 145.294 137.337L145.537 135.506C145.58 135.182 145.331 134.894 145.004 134.889Z" fill="#FFC31F"/>
<path d="M142.713 125.785L138.188 130.595C137.98 130.816 138.234 131.16 138.506 131.026L144.535 128.065C144.852 127.909 144.939 127.497 144.713 127.226L143.528 125.809C143.318 125.558 142.937 125.547 142.713 125.785Z" fill="#FFC31F"/>
<path d="M147.425 129.133L139.538 132.542C139.262 132.661 139.354 133.073 139.654 133.065L148.251 132.821C148.593 132.812 148.842 132.492 148.767 132.157L148.174 129.514C148.099 129.181 147.739 128.997 147.425 129.133Z" fill="#FFC31F"/>
<defs>
<linearGradient id="paint0_linear_15877_13481" x1="100.679" y1="4.95806" x2="116.734" y2="228.019" gradientUnits="userSpaceOnUse">
<stop stop-color="#5050FF"/>
<stop offset="1" stop-color="#3333C7"/>
</linearGradient>
<linearGradient id="paint1_linear_15877_13481" x1="56.4396" y1="145.459" x2="52.3784" y2="177.707" gradientUnits="userSpaceOnUse">
<stop stop-color="#F9F9FA"/>
<stop offset="1" stop-color="#E8E8E9"/>
<stop offset="1" stop-color="#DEDEDE"/>
</linearGradient>
<linearGradient id="paint2_linear_15877_13481" x1="63.762" y1="152.144" x2="52.3784" y2="177.707" gradientUnits="userSpaceOnUse">
<stop stop-color="#F9F9FA"/>
<stop offset="1" stop-color="#E8E8E9"/>
<stop offset="1" stop-color="#DEDEDE"/>
</linearGradient>
<linearGradient id="paint3_linear_15877_13481" x1="65.5" y1="160" x2="45.5" y2="177" gradientUnits="userSpaceOnUse">
<stop stop-color="#F7F7F8"/>
<stop offset="1" stop-color="#E8E8E9"/>
<stop offset="1" stop-color="#DEDEDE"/>
</linearGradient>
<linearGradient id="paint4_linear_15877_13481" x1="45.9188" y1="177.628" x2="64.0401" y2="163.121" gradientUnits="userSpaceOnUse">
<stop stop-color="#D0D0D0"/>
<stop offset="1" stop-color="#D0D0D0" stop-opacity="0"/>
</linearGradient>
<linearGradient id="paint5_linear_15877_13481" x1="199.892" y1="163.686" x2="188.966" y2="186.299" gradientUnits="userSpaceOnUse">
<stop stop-color="#D9655F"/>
<stop offset="1" stop-color="#B4504B"/>
</linearGradient>
<linearGradient id="paint6_linear_15877_13481" x1="192.567" y1="156.43" x2="184.205" y2="192.721" gradientUnits="userSpaceOnUse">
<stop stop-color="#FF908A"/>
<stop offset="1" stop-color="#BC524C"/>
</linearGradient>
<linearGradient id="paint7_linear_15877_13481" x1="210.9" y1="167.197" x2="190.103" y2="198.091" gradientUnits="userSpaceOnUse">
<stop stop-color="#EC817B"/>
<stop offset="1" stop-color="#DA6761"/>
</linearGradient>
<linearGradient id="paint8_linear_15877_13481" x1="222.94" y1="174.576" x2="192.368" y2="187.994" gradientUnits="userSpaceOnUse">
<stop stop-color="#CA615C"/>
<stop offset="1" stop-color="#A74B46"/>
</linearGradient>
<linearGradient id="paint9_linear_15877_13481" x1="138.379" y1="166.13" x2="146.763" y2="187.212" gradientUnits="userSpaceOnUse">
<stop stop-color="#D9655F"/>
<stop offset="1" stop-color="#B4504B"/>
</linearGradient>
<linearGradient id="paint10_linear_15877_13481" x1="145.448" y1="160.065" x2="150.637" y2="193.305" gradientUnits="userSpaceOnUse">
<stop stop-color="#FF908A"/>
<stop offset="1" stop-color="#BC524C"/>
</linearGradient>
<linearGradient id="paint11_linear_15877_13481" x1="128.233" y1="168.582" x2="144.976" y2="197.763" gradientUnits="userSpaceOnUse">
<stop stop-color="#EC817B"/>
<stop offset="1" stop-color="#DA6761"/>
</linearGradient>
<linearGradient id="paint12_linear_15877_13481" x1="116.907" y1="174.452" x2="143.588" y2="188.518" gradientUnits="userSpaceOnUse">
<stop stop-color="#CA615C"/>
<stop offset="1" stop-color="#A74B46"/>
</linearGradient>
<linearGradient id="paint13_linear_15877_13481" x1="64.3495" y1="202.135" x2="60.0511" y2="195.755" gradientUnits="userSpaceOnUse">
<stop stop-color="#6F513D"/>
<stop offset="1" stop-color="#6F513D" stop-opacity="0"/>
</linearGradient>
<linearGradient id="paint14_linear_15877_13481" x1="90.4714" y1="142.47" x2="124.768" y2="147.951" gradientUnits="userSpaceOnUse">
<stop stop-color="#F9F9FA"/>
<stop offset="1" stop-color="#E8E8E9"/>
<stop offset="1" stop-color="#DEDEDE"/>
</linearGradient>
<linearGradient id="paint15_linear_15877_13481" x1="95.138" y1="151.981" x2="124.768" y2="147.951" gradientUnits="userSpaceOnUse">
<stop stop-color="#F9F9FA"/>
<stop offset="1" stop-color="#E8E8E9"/>
<stop offset="1" stop-color="#DEDEDE"/>
</linearGradient>
<linearGradient id="paint16_linear_15877_13481" x1="102.5" y1="151.5" x2="124.768" y2="147.951" gradientUnits="userSpaceOnUse">
<stop stop-color="#F7F7F7"/>
<stop offset="1" stop-color="#E8E8E9"/>
<stop offset="1" stop-color="#DEDEDE"/>
</linearGradient>
<linearGradient id="paint17_linear_15877_13481" x1="126.619" y1="141.301" x2="106.316" y2="155.551" gradientUnits="userSpaceOnUse">
<stop stop-color="#D0D0D0"/>
<stop offset="1" stop-color="#D0D0D0" stop-opacity="0"/>
</linearGradient>
<linearGradient id="paint18_linear_15877_13481" x1="84.75" y1="143" x2="94" y2="181" gradientUnits="userSpaceOnUse">
<stop stop-color="#F9F9F9"/>
<stop offset="1" stop-color="#F1F1F2"/>
</linearGradient>
<linearGradient id="paint19_linear_15877_13481" x1="70.5" y1="186" x2="61" y2="156" gradientUnits="userSpaceOnUse">
<stop stop-color="#D9D9D9"/>
<stop offset="1" stop-color="#D9D9D9" stop-opacity="0"/>
</linearGradient>
<linearGradient id="paint20_linear_15877_13481" x1="94.9248" y1="144.784" x2="77.7004" y2="147.621" gradientUnits="userSpaceOnUse">
<stop stop-color="#D9D9D9"/>
<stop offset="1" stop-color="#D9D9D9" stop-opacity="0"/>
</linearGradient>
<linearGradient id="paint21_linear_15877_13481" x1="86" y1="170" x2="86" y2="200" gradientUnits="userSpaceOnUse">
<stop stop-color="#F6F6F6"/>
<stop offset="1" stop-color="#EAEAEC"/>
</linearGradient>
<linearGradient id="paint22_linear_15877_13481" x1="100.65" y1="167.487" x2="108.939" y2="196.319" gradientUnits="userSpaceOnUse">
<stop stop-color="#F6F6F6"/>
<stop offset="1" stop-color="#EAEAEC"/>
</linearGradient>
<linearGradient id="paint23_linear_15877_13481" x1="24.8725" y1="120.561" x2="40.1579" y2="122.174" gradientUnits="userSpaceOnUse">
<stop stop-color="#A67556"/>
<stop offset="1" stop-color="#B38160" stop-opacity="0"/>
</linearGradient>
<linearGradient id="paint24_linear_15877_13481" x1="38.5669" y1="118.161" x2="35.0603" y2="125.939" gradientUnits="userSpaceOnUse">
<stop stop-color="#785A46"/>
<stop offset="1" stop-color="#785A46" stop-opacity="0"/>
</linearGradient>
<linearGradient id="paint25_linear_15877_13481" x1="28.033" y1="105.063" x2="48.6091" y2="97.3047" gradientUnits="userSpaceOnUse">
<stop stop-color="#878380"/>
<stop offset="0.517031" stop-color="#878380" stop-opacity="0.482969"/>
<stop offset="1" stop-color="#878380" stop-opacity="0"/>
</linearGradient>
<linearGradient id="paint26_linear_15877_13481" x1="23.7946" y1="82.7862" x2="33.2453" y2="95.9103" gradientUnits="userSpaceOnUse">
<stop stop-color="#D5D5D5"/>
<stop offset="1" stop-color="#D5D5D5" stop-opacity="0"/>
</linearGradient>
<linearGradient id="paint27_linear_15877_13481" x1="127.357" y1="107.667" x2="113.648" y2="112.75" gradientUnits="userSpaceOnUse">
<stop stop-color="#A67556"/>
<stop offset="1" stop-color="#B38160" stop-opacity="0"/>
</linearGradient>
<linearGradient id="paint28_linear_15877_13481" x1="117.557" y1="107.07" x2="135.504" y2="113.647" gradientUnits="userSpaceOnUse">
<stop stop-color="#785A46"/>
<stop offset="1" stop-color="#9C7256" stop-opacity="0"/>
</linearGradient>
<linearGradient id="paint29_linear_15877_13481" x1="120.741" y1="68.2624" x2="117.601" y2="80.4518" gradientUnits="userSpaceOnUse">
<stop stop-color="#D5D5D5"/>
<stop offset="1" stop-color="#D5D5D5" stop-opacity="0"/>
</linearGradient>
<linearGradient id="paint30_linear_15877_13481" x1="117.247" y1="94.4145" x2="100.022" y2="92.5026" gradientUnits="userSpaceOnUse">
<stop stop-color="#878380"/>
<stop offset="0.517031" stop-color="#878380" stop-opacity="0.482969"/>
<stop offset="1" stop-color="#878380" stop-opacity="0"/>
</linearGradient>
<linearGradient id="paint31_linear_15877_13481" x1="72.586" y1="84.9439" x2="82.0502" y2="152.968" gradientUnits="userSpaceOnUse">
<stop stop-color="#FBFBFB"/>
<stop offset="1" stop-color="#EEEEEF"/>
</linearGradient>
<linearGradient id="paint32_linear_15877_13481" x1="51.6411" y1="113.657" x2="93.823" y2="137.927" gradientUnits="userSpaceOnUse">
<stop stop-color="#CFCFCF"/>
<stop offset="1" stop-color="#D9D9D9" stop-opacity="0"/>
</linearGradient>
<linearGradient id="paint33_linear_15877_13481" x1="56.3739" y1="104.602" x2="53.962" y2="124.336" gradientUnits="userSpaceOnUse">
<stop stop-color="#6B4D38"/>
<stop offset="1" stop-color="#6B4D38" stop-opacity="0"/>
</linearGradient>
<linearGradient id="paint34_linear_15877_13481" x1="101.309" y1="118.973" x2="101.768" y2="130.194" gradientUnits="userSpaceOnUse">
<stop stop-color="#5B4332"/>
<stop offset="1" stop-color="#5B4332" stop-opacity="0"/>
</linearGradient>
<linearGradient id="paint35_linear_15877_13481" x1="74.9963" y1="105.295" x2="78.562" y2="136.915" gradientUnits="userSpaceOnUse">
<stop stop-color="#9A7054"/>
<stop offset="0.699576" stop-color="#D7CAC2"/>
<stop offset="1" stop-color="#F1F1F2"/>
</linearGradient>
<linearGradient id="paint36_linear_15877_13481" x1="89" y1="172" x2="67.5" y2="177.5" gradientUnits="userSpaceOnUse">
<stop stop-color="#D7D7D7"/>
<stop offset="1" stop-color="#D7D7D7" stop-opacity="0"/>
</linearGradient>
<linearGradient id="paint37_linear_15877_13481" x1="105.5" y1="169.132" x2="84" y2="174.632" gradientUnits="userSpaceOnUse">
<stop stop-color="#D7D7D7"/>
<stop offset="1" stop-color="#D7D7D7" stop-opacity="0"/>
</linearGradient>
<clipPath id="clip0_15877_13481">
<rect width="14.0014" height="20.4933" fill="white" transform="translate(28.1562 60.625)"/>
</clipPath>
<clipPath id="clip1_15877_13481">
<rect width="11.5055" height="9.14687" fill="white" transform="translate(29.4146 66.9083)"/>
</clipPath>
<clipPath id="clip2_15877_13481">
<rect width="23.0316" height="33.7105" fill="white" transform="translate(190.417 101.963)"/>
</clipPath>
<clipPath id="clip3_15877_13481">
<rect width="18.926" height="15.0462" fill="white" transform="translate(192.486 112.299)"/>
</clipPath>
<clipPath id="clip4_15877_13481">
<rect width="10.8333" height="8.6125" fill="white" transform="translate(78.0833 156.194)"/>
</clipPath>
</defs>
</svg>
