<?xml version="1.0" encoding="UTF-8" standalone="no"?>
<svg width="240" height="240" viewBox="0 0 240 240" fill="none" xmlns="http://www.w3.org/2000/svg">
<path d="M219.618 120C219.618 178.156 172.861 225.301 115.184 225.301C57.5071 225.301 10.7505 178.156 10.7505 120C10.7505 61.8438 57.5071 14.6989 115.184 14.6989C172.861 14.6989 219.618 61.8438 219.618 120Z" fill="url(#paint0_linear_15877_13478)"/>
<mask id="mask0_15877_13478" style="mask-type:alpha" maskUnits="userSpaceOnUse" x="128" y="122" width="33" height="16">
<path d="M134.122 124.221C137.682 123.978 146.95 123.38 153.846 122.509C157.217 122.084 161.675 123.827 159.944 126.75C159.014 128.319 157.211 129.898 155.388 132.034C151.77 136.273 142.921 138.669 134.206 136.937C125.49 135.206 127.158 124.697 134.122 124.221Z" fill="url(#paint1_linear_15877_13478)"/>
</mask>
<g mask="url(#mask0_15877_13478)">
<path d="M134.122 124.221C137.682 123.978 146.95 123.38 153.846 122.509C157.217 122.084 161.675 123.827 159.944 126.75C159.014 128.319 157.211 129.898 155.388 132.034C151.77 136.273 142.921 138.669 134.206 136.937C125.49 135.206 127.158 124.697 134.122 124.221Z" fill="url(#paint2_linear_15877_13478)"/>
<path d="M125.049 130.613C127.31 134.974 144.637 134.113 153.32 133.642C130.057 146.243 124.443 136.536 124.241 129.603C123.568 128.122 122.787 126.251 125.049 130.613Z" fill="url(#paint3_linear_15877_13478)"/>
</g>
<mask id="mask1_15877_13478" style="mask-type:alpha" maskUnits="userSpaceOnUse" x="179" y="126" width="23" height="33">
<path d="M200.775 148.254C198.593 145.02 192.881 136.624 188.999 130.091C187.101 126.898 182.601 124.224 181.244 127.681C180.515 129.537 180.364 132.154 179.747 135.161C178.522 141.13 182.401 150.372 189.75 156.726C197.1 163.08 205.043 154.581 200.775 148.254Z" fill="url(#paint4_linear_15877_13478)"/>
</mask>
<g mask="url(#mask1_15877_13478)">
<path d="M200.775 148.254C198.593 145.02 192.881 136.624 188.999 130.091C187.101 126.898 182.601 124.224 181.244 127.681C180.515 129.537 180.364 132.154 179.747 135.161C178.522 141.13 182.401 150.372 189.75 156.726C197.1 163.08 205.043 154.581 200.775 148.254Z" fill="url(#paint5_linear_15877_13478)"/>
<path d="M186.64 126.372C192.295 139.094 191.406 152.947 199.968 159.894C210.671 168.577 216.326 145.758 186.64 126.372Z" fill="url(#paint6_linear_15877_13478)"/>
</g>
<path d="M136.421 78.6367C139.738 106.884 118.515 110.237 107.77 108.193L106.345 98.5716C130.956 102.672 126.173 75.0009 127.708 76.9426C128.936 78.4959 134.625 78.8254 136.421 78.6367Z" fill="#142664"/>
<path d="M127.156 110.848L134.983 114.492C135.342 114.659 135.665 114.202 135.387 113.919L129.238 107.651C128.914 107.321 128.367 107.382 128.123 107.774L126.851 109.827C126.626 110.19 126.769 110.668 127.156 110.848Z" fill="#FFC31F"/>
<path d="M141.064 63.8929C144.149 73.4436 139.09 77.7415 136.421 78.6367C132.191 79.2744 128.775 78.1264 127.578 77.2743C121.119 73.8592 122.786 66.6084 124.609 63.1975C124.741 62.952 125.01 62.8193 125.286 62.8478L130.853 63.4217C131.123 63.4495 131.266 63.7575 131.121 63.9876C129.59 66.4304 128.029 70.7006 132.105 71.5855C136.278 72.4913 135.722 67.4213 134.831 64.4113C134.766 64.1935 134.914 63.9689 135.14 63.9456L140.322 63.411C140.651 63.3771 140.963 63.5785 141.064 63.8929Z" fill="#00E6B3"/>
<path d="M125.002 122.932L132.977 119.626C133.344 119.475 133.225 118.928 132.829 118.941L124.052 119.236C123.59 119.252 123.265 119.696 123.39 120.141L124.043 122.466C124.158 122.877 124.607 123.095 125.002 122.932Z" fill="#FFC31F"/>
<path d="M121.18 116.412L132.413 116.58C132.805 116.586 132.918 116.046 132.555 115.895L122.175 111.571C121.761 111.399 121.293 111.647 121.203 112.086L120.492 115.556C120.403 115.994 120.733 116.405 121.18 116.412Z" fill="#FFC31F"/>
<path d="M179.078 165.303C180.087 166.571 183.724 168.946 190.198 168.294" stroke="#856149" stroke-width="0.356349"/>
<mask id="mask2_15877_13478" style="mask-type:alpha" maskUnits="userSpaceOnUse" x="190" y="163" width="16" height="9">
<path d="M197.368 163.987C192.198 161.941 190.339 166.094 190.056 168.427C193.694 174.821 201.667 169.641 205.447 166.039C205.503 165.985 205.433 165.863 205.356 165.873C204.367 166.006 201.861 165.765 197.368 163.987Z" fill="#856149"/>
</mask>
<g mask="url(#mask2_15877_13478)">
<path d="M197.368 163.987C192.198 161.941 190.339 166.094 190.056 168.427C193.694 174.821 201.667 169.641 205.447 166.039C205.503 165.985 205.433 165.863 205.356 165.873C204.367 166.006 201.861 165.765 197.368 163.987Z" fill="#C7926E"/>
<g style="mix-blend-mode:multiply" opacity="0.4">
<path d="M190.126 168.263C194.981 171.414 202.314 167.836 205.373 165.652C205.773 166.533 205.031 169.186 198.863 172.757C192.695 176.328 190.468 171.249 190.126 168.263Z" fill="url(#paint7_linear_15877_13478)"/>
</g>
</g>
<mask id="mask3_15877_13478" style="mask-type:alpha" maskUnits="userSpaceOnUse" x="128" y="120" width="58" height="63">
<path d="M168.931 180.05C180.18 170.638 187.074 147.49 185.76 127.614C187.093 118.705 163.666 119.062 157.965 121.912C155.148 123.321 151.642 129.196 149.01 134.855C146.346 140.579 142.436 145.776 137.646 149.89C133.497 153.453 129.493 157.759 128.566 161.467C127.426 166.026 132.086 169.763 136.563 171.897C139.346 173.224 142.543 172.257 144.723 170.077L154.143 160.657C154.629 160.171 155.348 160.001 156 160.218C156.604 160.42 156.949 161.055 156.788 161.672L154.936 168.772L153.686 173.565C153.109 175.776 153.127 178.322 154.958 179.687C157.009 181.215 159.922 181.88 162.369 182.107C164.745 182.327 167.102 181.581 168.931 180.05Z" fill="url(#paint8_linear_15877_13478)"/>
</mask>
<g mask="url(#mask3_15877_13478)">
<path d="M168.931 180.05C180.18 170.638 187.074 147.49 185.76 127.614C187.093 118.705 163.666 119.062 157.965 121.912C155.148 123.321 151.642 129.196 149.01 134.855C146.346 140.579 142.436 145.776 137.646 149.89C133.497 153.453 129.493 157.759 128.566 161.467C127.426 166.026 132.086 169.763 136.563 171.897C139.346 173.224 142.543 172.257 144.723 170.077L154.143 160.657C154.629 160.171 155.348 160.001 156 160.218C156.604 160.42 156.949 161.055 156.788 161.672L154.936 168.772L153.686 173.565C153.109 175.776 153.127 178.322 154.958 179.687C157.009 181.215 159.922 181.88 162.369 182.107C164.745 182.327 167.102 181.581 168.931 180.05Z" fill="url(#paint9_linear_15877_13478)"/>
<path d="M158.571 124.958C161.331 128.458 170.485 133.682 185.025 126.574L158.571 124.958Z" fill="url(#paint10_linear_15877_13478)"/>
<path d="M146.858 169.587L152.715 157.673C153.369 158.85 154.401 159.772 155.644 160.29L156.148 160.5L146.858 169.587Z" fill="url(#paint11_linear_15877_13478)"/>
<path d="M150.695 175.847C167.658 175.847 175.13 174.636 185.429 128.795C195.526 147.172 180.178 173.626 175.13 184.733C171.091 193.618 154.801 180.424 150.695 175.847Z" fill="url(#paint12_linear_15877_13478)"/>
</g>
<g clip-path="url(#clip0_15877_13478)">
<path d="M164.166 133.328L159.716 137.776C159.677 137.815 159.677 137.879 159.717 137.918L161.329 139.507C161.368 139.545 161.432 139.545 161.471 139.506L164.215 136.763C164.254 136.724 164.315 136.724 164.355 136.761L165.613 137.947L162.6 140.885C162.561 140.924 162.56 140.987 162.598 141.027L164.165 142.639C164.203 142.678 164.266 142.68 164.306 142.643L165.596 141.444C165.634 141.409 165.693 141.408 165.732 141.443L166.972 142.57C167.011 142.606 167.072 142.605 167.11 142.567L171.536 138.143C171.575 138.104 171.575 138.041 171.536 138.002L169.947 136.414C169.908 136.375 169.845 136.374 169.805 136.413L167.037 139.157C166.998 139.195 166.936 139.195 166.897 139.158L165.638 137.947L168.651 135.034C168.691 134.995 168.692 134.932 168.654 134.892L167.087 133.257C167.049 133.217 166.985 133.216 166.945 133.255L165.681 134.472C165.643 134.509 165.583 134.51 165.544 134.474L164.305 133.326C164.265 133.289 164.204 133.29 164.166 133.328Z" fill="#4343EF"/>
</g>
<path d="M175.604 53.0034H181.038" stroke="white" stroke-width="0.712698"/>
<path d="M178.321 50.2863V55.7206" stroke="white" stroke-width="0.712698"/>
<path d="M200.17 136.065H203.805" stroke="white" stroke-width="0.476711"/>
<path d="M201.988 134.247V137.882" stroke="white" stroke-width="0.476711"/>
<path d="M92.5747 34.9633H98.2763" stroke="white" stroke-width="0.712698"/>
<path d="M95.4255 32.1124V37.814" stroke="white" stroke-width="0.712698"/>
<path d="M17.0283 184.273H22.7299" stroke="white" stroke-width="0.712698"/>
<path d="M19.8789 181.423V187.124" stroke="white" stroke-width="0.712698"/>
<path d="M152.797 187.837C151.728 190.628 149.198 196.603 147.63 198.171" stroke="white" stroke-width="0.712698"/>
<path d="M9.9015 160.933C-3.49722 135.846 16.9691 124.823 27.7189 122.803L28.788 132.603C4.37806 137.77 20.7701 160.576 18.632 159.329C16.9215 158.331 11.5051 160.101 9.9015 160.933Z" fill="#142664"/>
<path d="M10.9612 176.354C4.6026 168.588 7.74432 162.74 9.90157 160.933C13.6076 158.795 17.2067 158.616 18.6321 158.973C25.8915 159.795 26.9868 167.153 26.5344 170.994C26.5018 171.271 26.2999 171.493 26.0317 171.567L20.6401 173.065C20.3785 173.138 20.1331 172.903 20.1833 172.636C20.7169 169.803 20.612 165.257 16.494 165.922C12.2787 166.601 14.6466 171.119 16.5751 173.596C16.7147 173.775 16.6597 174.038 16.4578 174.142L11.828 176.532C11.5344 176.683 11.1706 176.609 10.9612 176.354Z" fill="#00E6B3"/>
<mask id="mask4_15877_13478" style="mask-type:alpha" maskUnits="userSpaceOnUse" x="19" y="50" width="104" height="171">
<path d="M19.6114 64.5112C19.3219 61.9692 21.1479 59.6737 23.6899 59.3842L99.7413 50.7222C102.283 50.4327 104.579 52.2587 104.868 54.8008L122.22 207.15C122.51 209.692 120.684 211.988 118.142 212.277L42.0905 220.939C39.5484 221.229 37.253 219.403 36.9634 216.861L19.6114 64.5112Z" fill="white"/>
</mask>
<g mask="url(#mask4_15877_13478)">
<path d="M19.6114 64.5112C19.3219 61.9692 21.1479 59.6737 23.6899 59.3842L99.7413 50.7222C102.283 50.4327 104.579 52.2587 104.868 54.8008L122.22 207.15C122.51 209.692 120.684 211.988 118.142 212.277L42.0905 220.939C39.5484 221.229 37.253 219.403 36.9634 216.861L19.6114 64.5112Z" fill="white"/>
<path d="M36.9851 57.6277C26.4842 58.3269 22.5438 67.5264 22.0591 85.7818C15.6643 76.156 7.31747 53.6733 36.9851 57.6277Z" fill="url(#paint13_linear_15877_13478)"/>
<path d="M75.5733 214.822C50.5328 250.363 37.4066 208.158 21.8572 85.3779C18.2223 118.496 13.9412 197.737 22.665 230.371C31.3888 263.005 64.6013 232.054 75.5733 214.822Z" fill="url(#paint14_linear_15877_13478)"/>
</g>
<rect x="25.9583" y="65.9676" width="73.2202" height="147.928" rx="4.23391" transform="rotate(-6.49778 25.9583 65.9676)" fill="#EF437C"/>
<mask id="mask5_15877_13478" style="mask-type:alpha" maskUnits="userSpaceOnUse" x="26" y="58" width="90" height="155">
<path d="M26.4164 70.2623C26.1518 67.939 27.8207 65.841 30.144 65.5764L94.5418 58.2417C96.841 57.9799 98.9261 59.6246 99.2215 61.9197C106.092 115.295 110.043 147.011 115.043 200.608C115.257 202.901 113.598 204.955 111.309 205.216L46.8841 212.554C44.5608 212.818 42.4629 211.15 42.1983 208.826L26.4164 70.2623Z" fill="#EF437C"/>
</mask>
<g mask="url(#mask5_15877_13478)">
<rect x="24.3491" y="64.2926" width="75.9259" height="12.3391" transform="rotate(-6.51873 24.3491 64.2926)" fill="#142664"/>
</g>
<rect x="32.3516" y="84.0679" width="62.3466" height="31.553" rx="3.05574" transform="rotate(-6.49778 32.3516 84.0679)" fill="#FEC618"/>
<mask id="mask6_15877_13478" style="mask-type:alpha" maskUnits="userSpaceOnUse" x="37" y="115" width="66" height="39">
<rect x="37.5715" y="122.197" width="62.3466" height="31.553" rx="3.05574" transform="rotate(-6.49778 37.5715 122.197)" fill="#00E6B3"/>
</mask>
<g mask="url(#mask6_15877_13478)">
<rect x="37.5715" y="122.197" width="62.3466" height="31.553" rx="3.05574" transform="rotate(-6.49778 37.5715 122.197)" fill="#142664"/>
<circle cx="68.7053" cy="127.436" r="4.45436" fill="#EF437C"/>
<path d="M65.5798 136.27C65.9544 134.306 67.5743 132.819 69.5641 132.615C71.6671 132.4 73.6393 133.668 74.3148 135.672L77.3767 144.751C77.5944 145.397 77.1609 146.078 76.484 146.155L65.1048 147.444C64.4071 147.523 63.824 146.919 63.9271 146.224L64.7862 140.434L65.5798 136.27Z" fill="#EF437C"/>
<rect x="40.1667" y="144.984" width="62.3466" height="8.61897" transform="rotate(-6.49778 40.1667 144.984)" fill="#00E6B3"/>
</g>
<rect x="42.3293" y="162.17" width="28.2492" height="41.0365" rx="3.05574" transform="rotate(-6.49778 42.3293 162.17)" fill="white"/>
<rect x="42.3293" y="162.17" width="28.2492" height="41.0365" rx="3.05574" transform="rotate(-6.49778 42.3293 162.17)" fill="white"/>
<rect x="76.7698" y="157.893" width="28.2492" height="41.0365" rx="3.05574" transform="rotate(-6.49778 76.7698 157.893)" fill="white"/>
<rect x="48.387" y="193.686" width="23.3488" height="6.7675" rx="3.38375" transform="rotate(-6.49778 48.387 193.686)" fill="#4343EF"/>
<rect x="82.8276" y="189.41" width="23.3488" height="6.7675" rx="3.38375" transform="rotate(-6.49778 82.8276 189.41)" fill="#4343EF"/>
<rect x="50.0322" y="188.732" width="18.707" height="1.16875" rx="0.584377" transform="rotate(-6.49778 50.0322 188.732)" stroke="black" stroke-width="0.235057"/>
<rect x="49.9021" y="188.628" width="18.9421" height="1.40381" rx="0.701906" transform="rotate(-6.49778 49.9021 188.628)" fill="#EF437C"/>
<rect x="84.3425" y="184.352" width="18.9421" height="1.40381" rx="0.701906" transform="rotate(-6.49778 84.3425 184.352)" fill="#EF437C"/>
<rect x="49.4563" y="186.061" width="18.9421" height="1.40381" rx="0.701906" transform="rotate(-6.49778 49.4563 186.061)" fill="#EF437C"/>
<rect x="83.897" y="181.785" width="18.9421" height="1.40381" rx="0.701906" transform="rotate(-6.49778 83.897 181.785)" fill="#EF437C"/>
<path d="M126.441 25.6121C126.474 25.3041 126.895 25.3023 126.93 25.61L127.229 28.1912C127.616 31.5241 130.101 34.1428 133.241 34.5253L135.673 34.8215C135.963 34.8568 135.965 35.3035 135.675 35.3413L133.246 35.6579C130.109 36.0667 127.646 38.7061 127.288 42.0422L127.01 44.6257C126.977 44.9338 126.557 44.9355 126.521 44.6278L126.222 42.0466C125.835 38.7137 123.35 36.0951 120.21 35.7126L117.778 35.4164C117.488 35.381 117.486 34.9344 117.776 34.8966L120.205 34.58C123.342 34.1712 125.805 31.5317 126.163 28.1957L126.441 25.6121Z" fill="#FFC31F"/>
<path d="M173.479 182.762C173.512 182.454 173.933 182.452 173.969 182.76L174.268 185.341C174.654 188.674 177.14 191.293 180.28 191.675L182.711 191.972C183.001 192.007 183.003 192.454 182.714 192.491L180.284 192.808C177.148 193.217 174.684 195.856 174.326 199.192L174.048 201.776C174.015 202.084 173.595 202.086 173.559 201.778L173.26 199.197C172.874 195.864 170.388 193.245 167.248 192.863L164.816 192.566C164.526 192.531 164.525 192.084 164.814 192.047L167.243 191.73C170.38 191.321 172.843 188.682 173.202 185.346L173.479 182.762Z" fill="#FFC31F"/>
<path d="M140.127 38.6538C140.142 38.513 140.335 38.5122 140.351 38.6528L140.488 39.8326C140.664 41.3561 141.8 42.553 143.235 42.7278L144.347 42.8632C144.479 42.8794 144.48 43.0835 144.348 43.1008L143.238 43.2455C141.804 43.4324 140.678 44.6388 140.514 46.1636L140.387 47.3445C140.372 47.4853 140.18 47.4861 140.164 47.3455L140.027 46.1657C139.85 44.6423 138.714 43.4453 137.279 43.2705L136.168 43.1351C136.035 43.119 136.034 42.9148 136.167 42.8975L137.277 42.7528C138.711 42.566 139.837 41.3595 140 39.8347L140.127 38.6538Z" fill="#FFC31F"/>
<path d="M17.3718 112.516C17.3814 112.427 17.5031 112.427 17.5134 112.516L17.6 113.263C17.7119 114.227 18.4313 114.985 19.3401 115.096L20.044 115.182C20.1279 115.192 20.1285 115.321 20.0446 115.332L19.3415 115.424C18.4336 115.542 17.7206 116.306 17.6169 117.272L17.5365 118.02C17.5269 118.109 17.4053 118.109 17.3949 118.02L17.3083 117.273C17.1965 116.308 16.4771 115.55 15.5682 115.44L14.8643 115.354C14.7804 115.344 14.7799 115.215 14.8637 115.204L15.5668 115.112C16.4747 114.994 17.1878 114.23 17.2915 113.264L17.3718 112.516Z" fill="#FFC31F"/>
<path d="M139.256 178.394C136.821 182.076 130.882 190.474 126.606 194.608" stroke="white" stroke-width="0.712698"/>
<path d="M141.216 182.67C140.028 184.867 137.154 189.761 135.158 191.757" stroke="white" stroke-width="0.712698"/>
<mask id="mask7_15877_13478" style="mask-type:alpha" maskUnits="userSpaceOnUse" x="49" y="165" width="17" height="16">
<circle cx="57.296" cy="172.87" r="7.83968" fill="#D9D9D9"/>
</mask>
<g mask="url(#mask7_15877_13478)">
<circle cx="57.296" cy="172.87" r="7.83968" fill="#FEC618"/>
<circle cx="56.9784" cy="170.774" r="2.53646" fill="#EF437C"/>
<path d="M55.1983 175.805C55.4116 174.686 56.334 173.84 57.4671 173.724C58.6646 173.601 59.7876 174.323 60.1723 175.464L61.9158 180.634C62.0398 181.002 61.7929 181.39 61.4075 181.434L54.9278 182.167C54.5305 182.212 54.1985 181.869 54.2572 181.473L54.7463 178.176L55.1983 175.805Z" fill="#EF437C"/>
</g>
<mask id="mask8_15877_13478" style="mask-type:alpha" maskUnits="userSpaceOnUse" x="83" y="160" width="17" height="17">
<circle cx="91.7367" cy="168.594" r="7.83968" fill="#D9D9D9"/>
</mask>
<g mask="url(#mask8_15877_13478)">
<circle cx="91.7367" cy="168.594" r="7.83968" fill="#EF437C"/>
<circle cx="91.419" cy="166.498" r="2.53646" fill="#FEC618"/>
<path d="M89.6389 171.529C89.8522 170.41 90.7747 169.564 91.9077 169.448C93.1052 169.325 94.2283 170.047 94.6129 171.188L96.3565 176.358C96.4804 176.726 96.2336 177.114 95.8481 177.157L89.3685 177.891C88.9712 177.936 88.6392 177.592 88.6978 177.197L89.187 173.9L89.6389 171.529Z" fill="#FEC618"/>
</g>
<rect x="30.2134" y="69.7371" width="13.154" height="2.80795" rx="1.40397" transform="rotate(-6.54405 30.2134 69.7371)" fill="white"/>
<rect x="44.9404" y="68.1017" width="3.10894" height="2.80795" rx="1.40397" transform="rotate(-6.54405 44.9404 68.1017)" fill="white"/>
<rect x="79.7458" y="63.8254" width="3.10894" height="2.80795" rx="1.40397" transform="rotate(-6.54405 79.7458 63.8254)" fill="white"/>
<rect x="50.6421" y="67.389" width="3.10894" height="2.80795" rx="1.40397" transform="rotate(-6.54405 50.6421 67.389)" fill="white"/>
<rect x="85.8037" y="63.1128" width="3.10894" height="2.80795" rx="1.40397" transform="rotate(-6.54405 85.8037 63.1128)" fill="white"/>
<rect x="91.8618" y="62.4001" width="3.10894" height="2.80795" rx="1.40397" transform="rotate(-6.54405 91.8618 62.4001)" fill="white"/>
<rect x="37.6965" y="88.9231" width="36.1066" height="2.05892" rx="1.02946" transform="rotate(-6.47395 37.6965 88.9231)" fill="#142664"/>
<path fill-rule="evenodd" clip-rule="evenodd" d="M78.5401 121.606C77.5623 121.717 76.8596 122.6 76.9706 123.578L77.4431 127.741L76.0571 130.821L77.775 130.344C78.0318 131.132 78.8143 131.657 79.6696 131.56L94.0447 129.929C95.0224 129.818 95.7251 128.935 95.6142 127.958L94.8865 121.545C94.7755 120.567 93.8929 119.864 92.9152 119.975L78.5401 121.606Z" fill="#00E6B3"/>
<rect x="38.4094" y="92.9659" width="31.6005" height="2.05892" rx="1.02946" transform="rotate(-6.47395 38.4094 92.9659)" fill="#142664"/>
<rect x="39.1223" y="97.0905" width="31.6005" height="2.05892" rx="1.02946" transform="rotate(-6.47395 39.1223 97.0905)" fill="#142664"/>
<rect x="39.8347" y="101.215" width="31.6005" height="2.05892" rx="1.02946" transform="rotate(-6.47395 39.8347 101.215)" fill="#142664"/>
<rect x="40.5476" y="105.339" width="31.6005" height="2.05892" rx="1.02946" transform="rotate(-6.47395 40.5476 105.339)" fill="#142664"/>
<path d="M148.877 181.957C146.858 186.293 141.287 196.247 135.158 201.378" stroke="white" stroke-width="0.712698"/>
<circle cx="84.2002" cy="85.0302" r="4.45436" fill="#EF437C"/>
<mask id="mask9_15877_13478" style="mask-type:alpha" maskUnits="userSpaceOnUse" x="119" y="77" width="25" height="20">
<path d="M119.958 86.4649C131.102 85.4071 140.805 79.6567 143.709 77.1481C140.211 80.1692 138.623 90.8493 137.839 96.6638C127.074 97.0887 121.124 90.9145 119.516 87.1605C119.379 86.84 119.611 86.4978 119.958 86.4649Z" fill="#856149"/>
</mask>
<g mask="url(#mask9_15877_13478)">
<path d="M119.958 86.4649C131.102 85.4071 140.805 79.6567 143.709 77.1481C140.211 80.1692 138.623 90.8493 137.839 96.6638C127.074 97.0887 121.124 90.9145 119.516 87.1605C119.379 86.84 119.611 86.4978 119.958 86.4649Z" fill="#C7926E"/>
<mask id="mask10_15877_13478" style="mask-type:alpha" maskUnits="userSpaceOnUse" x="118" y="85" width="23" height="14">
<path d="M119.151 86.3798C121.412 89.193 133.958 93.4342 140.556 92.3357L139.22 97.9422C121.151 102.461 116.325 82.8634 119.151 86.3798Z" fill="#C28E6C"/>
</mask>
<g mask="url(#mask10_15877_13478)">
<path d="M119.151 86.3798C121.412 89.193 133.958 93.4342 140.556 92.3357L139.22 97.9422C121.151 102.461 116.325 82.8634 119.151 86.3798Z" fill="#DCA682"/>
<path d="M138.771 90.6506C127.996 94.8229 120.621 89.4533 118.26 85.5098C119.685 86.917 132.045 89.57 138.771 90.6506L140.111 90.8558C139.697 90.796 139.248 90.7272 138.771 90.6506Z" fill="url(#paint15_linear_15877_13478)"/>
</g>
<g style="mix-blend-mode:multiply" opacity="0.4">
<path d="M123.094 96.5173C131.522 98.4729 139.084 87.2247 141.812 81.3561C141.796 84.378 141.723 91.8811 141.56 97.7178C141.397 103.555 129.182 99.3495 123.094 96.5173Z" fill="url(#paint16_linear_15877_13478)"/>
</g>
</g>
<mask id="mask11_15877_13478" style="mask-type:alpha" maskUnits="userSpaceOnUse" x="126" y="49" width="26" height="31">
<path d="M127.465 49.6975C132.948 62.477 145.797 68.582 151.35 69.9613C146.422 73.3321 143.542 76.5188 142.204 79.4866C125.265 75.3305 125.274 57.9559 127.465 49.6975Z" fill="#A09D9B"/>
</mask>
<g mask="url(#mask11_15877_13478)">
<path d="M127.465 49.6975C132.948 62.477 145.797 68.582 151.35 69.9613C146.422 73.3321 143.542 76.5188 142.204 79.4866C125.265 75.3305 125.274 57.9559 127.465 49.6975Z" fill="#A09D9B"/>
<path d="M120.567 66.6882C138.396 80.3845 147.359 70.2047 152.577 65.6779C151.248 71.1445 147.709 82.4326 144.182 83.852C140.655 85.2715 127.359 72.282 120.567 66.6882Z" fill="url(#paint17_linear_15877_13478)"/>
<path d="M145.319 66.9657C142.354 68.8484 136.542 74.1374 137.012 80.232" stroke="#5E5E5E" stroke-width="0.270142"/>
<path d="M138.925 62.6246C135.96 64.5073 130.148 69.7964 130.618 75.8909" stroke="#5E5E5E" stroke-width="0.270142"/>
<path d="M135.624 55.7776C131.311 55.4972 125.212 62.437 125.682 68.5315" stroke="#5E5E5E" stroke-width="0.270142"/>
<path d="M142.91 66.5384C134.521 65.6681 126.719 55.334 127.105 49.4034L143.584 66.5822C146.855 66.9302 151.3 67.4087 142.91 66.5384Z" fill="url(#paint18_linear_15877_13478)"/>
</g>
<mask id="mask12_15877_13478" style="mask-type:alpha" maskUnits="userSpaceOnUse" x="209" y="81" width="23" height="21">
<path d="M231.325 93.4411C220.782 90.9485 211.971 83.9124 209.512 81.0201C212.474 84.504 212.897 95.4566 212.903 101.4C223.172 103.209 229.665 97.7468 231.675 94.181C231.843 93.8817 231.659 93.5201 231.325 93.4411Z" fill="#856149"/>
</mask>
<g mask="url(#mask12_15877_13478)">
<path d="M231.325 93.4411C220.782 90.9485 211.971 83.9124 209.512 81.0201C212.474 84.504 212.897 95.4566 212.903 101.4C223.172 103.209 229.665 97.7468 231.675 94.181C231.843 93.8817 231.659 93.5201 231.325 93.4411Z" fill="#C7926E"/>
<mask id="mask13_15877_13478" style="mask-type:alpha" maskUnits="userSpaceOnUse" x="211" y="93" width="22" height="11">
<path d="M231.959 93.8495C229.418 96.2832 217.708 98.6079 211.469 96.7134L212.053 102.301C228.947 108.949 235.134 90.8074 231.959 93.8495Z" fill="#C28E6C"/>
</mask>
<g mask="url(#mask13_15877_13478)">
<path d="M231.959 93.8495C229.418 96.2832 217.708 98.6079 211.469 96.7134L212.053 102.301C228.947 108.949 235.134 90.8074 231.959 93.8495Z" fill="#DCA682"/>
<path d="M211.696 97.3852C221.345 102.648 230.377 96.5397 233.09 93.1109C231.464 94.3443 217.835 95.3809 211.821 95.462L211.696 97.3852Z" fill="url(#paint19_linear_15877_13478)"/>
</g>
<g style="mix-blend-mode:multiply" opacity="0.3">
<path d="M211.6 87.5748C215.605 94.1882 229.782 98.8091 234.093 97.5967C234.492 97.3253 234.871 97.0673 235.227 96.8263C235.043 97.186 234.65 97.44 234.093 97.5967C227.685 101.96 216.171 109.78 210.399 106.041C204.269 102.069 208.645 92.0751 211.6 87.5748Z" fill="url(#paint20_linear_15877_13478)"/>
</g>
</g>
<mask id="mask14_15877_13478" style="mask-type:alpha" maskUnits="userSpaceOnUse" x="202" y="54" width="29" height="31">
<path d="M230.726 54.516C223.186 67.2366 208.796 71.9048 202.75 72.5946C207.483 76.8276 209.655 80.8942 210.658 84.2079C229.092 82.1578 231.9 63.5259 230.726 54.516Z" fill="#A09D9B"/>
</mask>
<g mask="url(#mask14_15877_13478)">
<path d="M230.726 54.516C223.186 67.2366 208.796 71.9048 202.75 72.5946C207.483 76.8276 209.655 80.8942 210.658 84.2079C229.092 82.1578 231.9 63.5259 230.726 54.516Z" fill="#A09D9B"/>
<path d="M218.119 67.2011C224.654 66.5748 230.788 58.5795 230.524 53.9615L217.594 67.2311C215.046 67.482 211.584 67.8274 218.119 67.2011Z" fill="url(#paint21_linear_15877_13478)"/>
<path d="M233.555 58.8961C222.767 77.0092 206.697 75.7388 203.081 71.6687C203.562 76.0764 205.176 85.2592 207.787 86.7284C210.399 88.1976 230.14 80.1957 233.555 58.8961Z" fill="url(#paint22_linear_15877_13478)"/>
<path d="M216.625 82.7298C216.256 79.237 214.102 71.6796 208.433 69.3918" stroke="#5E5E5E" stroke-width="0.270142"/>
<path d="M225.262 78.9599C224.893 75.4672 222.739 67.9098 217.071 65.6219" stroke="#5E5E5E" stroke-width="0.270142"/>
<path d="M230.822 72.5537C230.453 69.061 228.299 61.5035 222.631 59.2157" stroke="#5E5E5E" stroke-width="0.270142"/>
</g>
<mask id="mask15_15877_13478" style="mask-type:alpha" maskUnits="userSpaceOnUse" x="136" y="62" width="78" height="67">
<path d="M141.788 79.2366L141.774 79.2571C138.729 84.0837 137.461 95.8447 137.423 102.546C137.418 103.604 136.954 104.693 136.757 105.732C135.8 110.763 139.806 126.029 175.265 128.334C208.593 130.501 213.981 116.738 212.202 109.229C212.096 108.782 212.122 108.316 212.279 107.885C214.439 101.951 212.97 90.612 211.398 84.719C209.765 78.6001 199.704 62.0078 173.96 63.0441C152.418 63.9113 144.637 75.1283 141.788 79.2366Z" fill="#FBFBFB"/>
</mask>
<g mask="url(#mask15_15877_13478)">
<path d="M141.788 79.2365L141.774 79.2571C138.729 84.0837 137.461 95.8447 137.423 102.546C137.418 103.604 136.954 104.693 136.757 105.732C135.8 110.763 139.806 126.029 175.265 128.334C208.593 130.501 213.981 116.738 212.202 109.229C212.096 108.782 212.122 108.316 212.279 107.885C214.439 101.951 212.97 90.612 211.398 84.719C209.765 78.6001 199.704 62.0078 173.96 63.0441C152.418 63.9113 144.637 75.1283 141.788 79.2365Z" fill="url(#paint23_linear_15877_13478)"/>
<path d="M173.849 123.64C207.369 121.055 203.533 73.0516 181.332 62.6747C228.343 64.1068 218.345 92.9645 217.519 120.253C216.857 142.083 150.48 129.159 140.181 116.849C155.639 124.757 167.376 124.663 173.849 123.64Z" fill="url(#paint24_linear_15877_13478)"/>
</g>
<mask id="mask16_15877_13478" style="mask-type:alpha" maskUnits="userSpaceOnUse" x="144" y="80" width="61" height="43">
<path d="M167.116 83.5428L168.591 84.1903C170.494 85.0254 172.505 85.5854 174.565 85.8534L174.969 85.9059C178.138 86.3182 181.36 86.031 184.407 85.0646L185.447 84.7346L189.367 83.538C190.884 83.0749 192.473 82.8903 194.056 82.9932L194.669 83.033C196.412 83.1463 198.106 83.6892 199.592 84.6067C200.838 85.3767 201.917 86.3997 202.75 87.6051C203.469 88.6458 203.997 89.8067 204.307 91.0331L204.469 91.6744C204.836 93.1211 204.973 94.6163 204.876 96.1056L204.696 98.8724C204.39 103.58 202.571 108.063 199.51 111.652L198.352 113.009C197.096 114.483 195.649 115.782 194.051 116.875L191.992 118.282C189.337 120.097 186.314 121.304 183.138 121.818L181.394 122.1L180.094 122.25C176.976 122.61 173.823 122.519 170.731 121.98L167.406 121.4C166.131 121.178 164.877 120.843 163.661 120.399L159.839 119.003C158.496 118.513 157.205 117.893 155.984 117.151L155.452 116.828C153.06 115.375 150.971 113.474 149.299 111.23C147.681 109.058 146.483 106.602 145.767 103.99L145.466 102.894C145.005 101.213 144.748 99.4823 144.701 97.7398L144.649 95.8218C144.573 93.0292 145.279 90.2711 146.688 87.8588L146.967 87.3817C148.544 84.681 151.013 82.6144 153.949 81.5375L154.304 81.4073C155.829 80.848 157.455 80.6135 159.076 80.7189C160.48 80.8103 161.857 81.1552 163.139 81.737L167.116 83.5428Z" fill="#856149"/>
</mask>
<g mask="url(#mask16_15877_13478)">
<path d="M166.94 83.583L168.415 84.2306C170.317 85.0657 172.328 85.6257 174.388 85.8937L174.792 85.9462C177.962 86.3585 181.183 86.0713 184.23 85.1049L185.271 84.7748L189.19 83.5783C190.708 83.1151 192.296 82.9305 193.879 83.0335L194.492 83.0733C196.235 83.1866 197.929 83.7295 199.415 84.647C200.661 85.417 201.74 86.44 202.573 87.6454C203.293 88.6861 203.82 89.847 204.13 91.0734L204.293 91.7146C204.659 93.1614 204.796 94.6566 204.699 96.1458L204.52 98.9126C204.213 103.62 202.394 108.103 199.333 111.692L198.175 113.05C196.919 114.523 195.472 115.823 193.874 116.915L191.815 118.322C189.16 120.137 186.137 121.345 182.962 121.858L181.217 122.14L179.917 122.29C176.8 122.65 173.646 122.559 170.554 122.02L167.23 121.441C165.954 121.218 164.7 120.883 163.484 120.439L159.662 119.044C158.32 118.553 157.028 117.933 155.807 117.191L155.275 116.868C152.883 115.416 150.794 113.515 149.122 111.27C147.504 109.098 146.306 106.643 145.59 104.03L145.289 102.934C144.828 101.253 144.571 99.5226 144.524 97.7801L144.472 95.8621C144.396 93.0695 145.103 90.3114 146.511 87.8991L146.79 87.422C148.367 84.7213 150.836 82.6547 153.773 81.5778L154.128 81.4476C155.653 80.8883 157.278 80.6538 158.899 80.7592C160.303 80.8505 161.68 81.1955 162.962 81.7773L166.94 83.583Z" fill="#C7926E"/>
<path d="M180.949 101.586C181.959 100.22 185.118 97.9515 189.68 99.8045" stroke="#252525" stroke-width="0.712698" stroke-linecap="round"/>
<path d="M165.639 80.4253C156.279 80.752 146.726 90.2679 147.685 100.509C145.702 92.8452 146.537 77.7757 165.639 80.4253Z" fill="url(#paint25_linear_15877_13478)"/>
<g style="mix-blend-mode:overlay" opacity="0.5">
<path d="M203.267 91.7134C199.323 108.647 188.922 120.397 179.046 120.729C187.969 120.903 205.165 114.144 203.267 91.7134Z" fill="url(#paint26_linear_15877_13478)"/>
</g>
<path d="M188.698 88.8711C186.852 86.7688 183.869 89.4055 182.211 91.4879C181.828 91.9688 182.165 92.6328 182.779 92.6069C186.503 92.45 190.38 90.7877 188.698 88.8711Z" fill="#604533"/>
<path d="M162.043 87.2383C164.037 85.4879 166.515 88.298 167.837 90.4702C168.156 90.9953 167.737 91.609 167.131 91.5011C163.642 90.8788 160.222 88.8375 162.043 87.2383Z" fill="#604533"/>
<mask id="mask17_15877_13478" style="mask-type:alpha" maskUnits="userSpaceOnUse" x="156" y="93" width="7" height="10">
<ellipse cx="159.385" cy="97.9192" rx="3.10663" ry="4.32227" transform="rotate(3.71985 159.385 97.9192)" fill="#252525"/>
</mask>
<g mask="url(#mask17_15877_13478)">
<ellipse cx="159.385" cy="97.9192" rx="3.10663" ry="4.32227" transform="rotate(3.71985 159.385 97.9192)" fill="#252525"/>
<circle cx="160.135" cy="94.7194" r="1.08057" transform="rotate(3.71985 160.135 94.7194)" fill="white"/>
</g>
<path d="M162.618 104.496L162.945 105.265C163.003 105.402 163.024 105.552 163.005 105.699C162.99 105.816 162.951 105.928 162.891 106.029L162.838 106.116C162.52 106.642 162.607 107.318 163.049 107.745L163.166 107.859C163.232 107.922 163.303 107.98 163.379 108.03L163.612 108.186C164.209 108.586 164.891 108.84 165.604 108.931L165.711 108.944C166.254 109.013 166.803 108.993 167.34 108.887L167.368 108.881L168.157 108.77C168.646 108.701 169.141 108.697 169.63 108.759C170.119 108.821 170.598 108.947 171.053 109.136L171.318 109.245C171.631 109.375 171.961 109.462 172.297 109.504C173.016 109.595 173.747 109.479 174.402 109.17L174.614 109.07C174.863 108.952 175.092 108.794 175.29 108.602L175.411 108.485C175.544 108.356 175.653 108.204 175.733 108.038L175.775 107.949C175.908 107.672 175.939 107.356 175.861 107.058C175.819 106.898 175.809 106.731 175.829 106.567L175.85 106.402C175.883 106.144 175.962 105.894 176.083 105.664L176.097 105.636C176.319 105.216 176.407 104.738 176.35 104.266L176.311 103.94C176.264 103.542 176.109 103.164 175.863 102.848C175.504 102.384 174.975 102.083 174.393 102.009L173.973 101.956C173.524 101.899 173.068 101.937 172.635 102.068L172.018 102.253L171.499 102.436C171.087 102.581 170.658 102.674 170.223 102.715C169.834 102.751 169.438 102.744 169.051 102.695C168.469 102.622 167.895 102.454 167.365 102.2L166.624 101.844L165.595 101.425C165.012 101.188 164.357 101.201 163.784 101.461C163.163 101.743 162.7 102.286 162.52 102.943L162.514 102.963C162.375 103.471 162.411 104.011 162.618 104.496Z" fill="#FCA988"/>
<path d="M171.277 106.108C171.808 105.004 172.841 103.694 174.025 104.686C175.404 105.84 172.767 106.115 171.277 106.108Z" fill="#C77452"/>
<path d="M171.057 106.625C171.115 106.466 171.189 106.29 171.277 106.108M171.277 106.108C171.808 105.004 172.841 103.694 174.025 104.686C175.404 105.84 172.767 106.115 171.277 106.108Z" stroke="#B46646" stroke-width="0.270142"/>
<path d="M167.213 105.675C166.978 104.495 166.315 102.995 164.945 103.649C163.35 104.411 165.793 105.317 167.213 105.675Z" fill="#C77452"/>
<path d="M167.296 106.221C167.279 106.055 167.252 105.869 167.213 105.675M167.213 105.675C166.978 104.495 166.315 102.995 164.945 103.649C163.35 104.411 165.793 105.317 167.213 105.675Z" stroke="#B46646" stroke-width="0.270142"/>
<circle cx="196.864" cy="104.833" r="1.08057" transform="rotate(3.71985 196.864 104.833)" fill="#FFF5F5" fill-opacity="0.2"/>
<path d="M187.502 115.596C192.408 110.907 194.216 107.262 195.071 107.426C196.141 107.63 196.218 110.613 187.502 115.596Z" fill="#FFF5F5" fill-opacity="0.2"/>
<path d="M166.982 83.534L168.457 84.1815C170.359 85.0166 172.37 85.5766 174.43 85.8446L174.834 85.8971C178.004 86.3094 181.225 86.0222 184.272 85.0559L185.313 84.7258L189.232 83.5292C190.75 83.0661 192.338 82.8815 193.921 82.9844L194.534 83.0243C196.277 83.1375 197.971 83.6804 199.457 84.598C200.703 85.3679 201.782 86.3909 202.615 87.5963C203.335 88.637 203.862 89.798 204.172 91.0243L204.335 91.6656C204.701 93.1123 204.838 94.6075 204.741 96.0968L204.562 98.8636C204.255 103.571 202.436 108.054 199.375 111.643L198.217 113.001C196.961 114.474 195.514 115.774 193.916 116.866L191.857 118.273C189.202 120.088 186.179 121.295 183.004 121.809L181.259 122.091L179.959 122.241C176.842 122.601 173.688 122.51 170.596 121.971L167.272 121.391C165.996 121.169 164.742 120.834 163.526 120.39L159.704 118.994C158.362 118.504 157.07 117.884 155.849 117.142L155.317 116.819C152.925 115.366 150.836 113.466 149.164 111.221C147.546 109.049 146.348 106.594 145.632 103.981L145.331 102.885C144.87 101.204 144.613 99.4736 144.566 97.731L144.514 95.813C144.438 93.0204 145.145 90.2623 146.553 87.85L146.832 87.373C148.409 84.6722 150.878 82.6056 153.815 81.5287L154.17 81.3985C155.695 80.8392 157.32 80.6048 158.941 80.7101C160.345 80.8015 161.722 81.1464 163.004 81.7283L166.982 83.534Z" stroke="url(#paint27_linear_15877_13478)" stroke-width="4.05213"/>
<path d="M167.994 83.4496L172.392 84.5074L178.392 85.0826C179.947 85.2318 181.514 85.2138 183.066 85.0292L186.325 84.6413L190.524 84.1659C191.813 84.0201 193.112 83.989 194.405 84.0731L196.089 84.1826C197.439 84.2704 198.773 84.5249 200.06 84.9405L201.219 85.3144C201.978 85.5596 202.698 85.915 203.354 86.3693L203.922 86.7625C204.517 87.1746 205.016 87.711 205.383 88.3347C205.893 89.1997 206.131 90.1983 206.066 91.2004L206.03 91.7581C205.879 94.0835 204.55 96.1705 202.508 97.2918L199.549 98.9158C198.75 99.3541 197.908 99.7071 197.036 99.9688L192.676 101.277C190.942 101.797 189.15 102.1 187.341 102.179L183.549 102.344L177.585 102.471L167.645 101.31L159.898 99.7127L156.029 98.4821C154.548 98.011 153.136 97.3445 151.831 96.5002L150.426 95.5912C149.224 94.8137 148.206 93.7844 147.441 92.5744L146.924 91.757C146.493 91.0749 146.217 90.3066 146.115 89.5063C145.876 87.6367 146.608 85.7746 148.055 84.5675L148.75 83.9886C149.771 83.137 151.009 82.5861 152.325 82.3975L155.511 81.9412C156.778 81.7598 158.06 81.7101 159.337 81.7932L160.054 81.8398C161.348 81.9239 162.632 82.1229 163.891 82.4343L167.994 83.4496Z" fill="url(#paint28_linear_15877_13478)"/>
</g>
<mask id="mask18_15877_13478" style="mask-type:alpha" maskUnits="userSpaceOnUse" x="169" y="108" width="19" height="10">
<path d="M186.303 108.373C179.214 112.53 172.434 112.902 169.53 112.52C169.338 112.495 169.157 112.62 169.145 112.812C169.028 114.666 170.734 117.77 178.633 117.636C186.224 117.508 187.611 112.239 187.329 108.856C187.287 108.36 186.733 108.121 186.303 108.373Z" fill="white"/>
</mask>
<g mask="url(#mask18_15877_13478)">
<path d="M186.303 108.373C179.214 112.53 172.434 112.902 169.53 112.52C169.338 112.495 169.157 112.62 169.145 112.812C169.028 114.666 170.734 117.77 178.633 117.636C186.224 117.508 187.611 112.239 187.329 108.856C187.287 108.36 186.733 108.121 186.303 108.373Z" fill="white"/>
<path d="M183.8 113.895C181.804 113.182 177.564 112.469 168.833 113.895C167.942 109.44 178.454 108.193 187.007 107.302C195.559 106.411 186.294 114.786 183.8 113.895Z" fill="url(#paint29_linear_15877_13478)"/>
<path d="M171.506 117.458C172.931 115.558 178.169 111.757 187.72 111.757C186.888 115.855 182.481 122.732 171.506 117.458Z" fill="#FC5A50"/>
</g>
<path d="M81.0744 93.8649C81.449 91.9 83.0689 90.4139 85.0587 90.2098C87.1617 89.9941 89.1339 91.2629 89.8094 93.2661L92.8713 102.346C93.089 102.991 92.6555 103.673 91.9786 103.75L80.5995 105.038C79.9018 105.117 79.3187 104.513 79.4217 103.819L80.2808 98.0283L81.0744 93.8649Z" fill="#EF437C"/>
<defs>
<linearGradient id="paint0_linear_15877_13478" x1="99.4022" y1="7.83288" x2="115.184" y2="225.301" gradientUnits="userSpaceOnUse">
<stop stop-color="#5050FF"/>
<stop offset="1" stop-color="#3333C7"/>
</linearGradient>
<linearGradient id="paint1_linear_15877_13478" x1="156.707" y1="118.252" x2="132.024" y2="137.48" gradientUnits="userSpaceOnUse">
<stop stop-color="#F9F9FA"/>
<stop offset="1" stop-color="#E8E8E9"/>
<stop offset="1" stop-color="#DEDEDE"/>
</linearGradient>
<linearGradient id="paint2_linear_15877_13478" x1="157.157" y1="127.785" x2="132.024" y2="137.48" gradientUnits="userSpaceOnUse">
<stop stop-color="#F9F9FA"/>
<stop offset="1" stop-color="#E8E8E9"/>
<stop offset="1" stop-color="#DEDEDE"/>
</linearGradient>
<linearGradient id="paint3_linear_15877_13478" x1="127.674" y1="133.036" x2="149.887" y2="135.459" gradientUnits="userSpaceOnUse">
<stop stop-color="#D0D0D0"/>
<stop offset="1" stop-color="#D0D0D0" stop-opacity="0"/>
</linearGradient>
<linearGradient id="paint4_linear_15877_13478" x1="190.749" y1="124.763" x2="190.749" y2="158.973" gradientUnits="userSpaceOnUse">
<stop stop-color="#F9F9FA"/>
<stop offset="1" stop-color="#E8E8E9"/>
<stop offset="1" stop-color="#DEDEDE"/>
</linearGradient>
<linearGradient id="paint5_linear_15877_13478" x1="190.749" y1="124.763" x2="190.749" y2="158.973" gradientUnits="userSpaceOnUse">
<stop stop-color="#F9F9FA"/>
<stop offset="1" stop-color="#E8E8E9"/>
<stop offset="1" stop-color="#DEDEDE"/>
</linearGradient>
<linearGradient id="paint6_linear_15877_13478" x1="188.862" y1="126.17" x2="200.574" y2="155.047" gradientUnits="userSpaceOnUse">
<stop stop-color="#DBDBDB"/>
<stop offset="1" stop-color="#DBDBDB" stop-opacity="0"/>
</linearGradient>
<linearGradient id="paint7_linear_15877_13478" x1="198.644" y1="169.178" x2="191.866" y2="171.908" gradientUnits="userSpaceOnUse">
<stop stop-color="#6F513D"/>
<stop offset="1" stop-color="#6F513D" stop-opacity="0"/>
</linearGradient>
<linearGradient id="paint8_linear_15877_13478" x1="172.828" y1="123.443" x2="157.442" y2="173.449" gradientUnits="userSpaceOnUse">
<stop stop-color="#F9F9F9"/>
<stop offset="1" stop-color="#F1F1F2"/>
</linearGradient>
<linearGradient id="paint9_linear_15877_13478" x1="172.828" y1="123.443" x2="157.442" y2="173.449" gradientUnits="userSpaceOnUse">
<stop stop-color="#F9F9F9"/>
<stop offset="1" stop-color="#F1F1F2"/>
</linearGradient>
<linearGradient id="paint10_linear_15877_13478" x1="160.186" y1="123.747" x2="177.351" y2="126.574" gradientUnits="userSpaceOnUse">
<stop stop-color="#D9D9D9"/>
<stop offset="1" stop-color="#D9D9D9" stop-opacity="0"/>
</linearGradient>
<linearGradient id="paint11_linear_15877_13478" x1="153.724" y1="157.673" x2="151.301" y2="169.587" gradientUnits="userSpaceOnUse">
<stop offset="0.0227681" stop-color="#D7D7D8"/>
<stop offset="1" stop-color="#D7D7D8" stop-opacity="0"/>
</linearGradient>
<linearGradient id="paint12_linear_15877_13478" x1="180.178" y1="167.972" x2="185.227" y2="124.15" gradientUnits="userSpaceOnUse">
<stop stop-color="#D7D7D7"/>
<stop offset="1" stop-color="#E7E7E8" stop-opacity="0"/>
</linearGradient>
<linearGradient id="paint13_linear_15877_13478" x1="27.6959" y1="57.4258" x2="22.8493" y2="84.4858" gradientUnits="userSpaceOnUse">
<stop stop-color="#D9D9D9"/>
<stop offset="1" stop-color="#D9D9D9" stop-opacity="0"/>
</linearGradient>
<linearGradient id="paint14_linear_15877_13478" x1="37.8105" y1="193.618" x2="50.1288" y2="240.872" gradientUnits="userSpaceOnUse">
<stop stop-color="#D2D2D2"/>
<stop offset="1" stop-color="#D2D2D2" stop-opacity="0"/>
</linearGradient>
<linearGradient id="paint15_linear_15877_13478" x1="123.989" y1="88.9955" x2="138.723" y2="93.4727" gradientUnits="userSpaceOnUse">
<stop stop-color="#A67556"/>
<stop offset="1" stop-color="#B38160" stop-opacity="0"/>
</linearGradient>
<linearGradient id="paint16_linear_15877_13478" x1="137.916" y1="89.2242" x2="132.995" y2="96.2135" gradientUnits="userSpaceOnUse">
<stop stop-color="#785A46"/>
<stop offset="1" stop-color="#785A46" stop-opacity="0"/>
</linearGradient>
<linearGradient id="paint17_linear_15877_13478" x1="130.03" y1="74.3449" x2="151.741" y2="70.6041" gradientUnits="userSpaceOnUse">
<stop stop-color="#878380"/>
<stop offset="0.517031" stop-color="#878380" stop-opacity="0.482969"/>
<stop offset="1" stop-color="#878380" stop-opacity="0"/>
</linearGradient>
<linearGradient id="paint18_linear_15877_13478" x1="130.073" y1="51.6267" x2="136.889" y2="66.3263" gradientUnits="userSpaceOnUse">
<stop stop-color="#D5D5D5"/>
<stop offset="1" stop-color="#D5D5D5" stop-opacity="0"/>
</linearGradient>
<linearGradient id="paint19_linear_15877_13478" x1="227.257" y1="95.693" x2="212.808" y2="98.1012" gradientUnits="userSpaceOnUse">
<stop stop-color="#A67556"/>
<stop offset="1" stop-color="#B38160" stop-opacity="0"/>
</linearGradient>
<linearGradient id="paint20_linear_15877_13478" x1="217.728" y1="93.2521" x2="234.141" y2="103.117" gradientUnits="userSpaceOnUse">
<stop stop-color="#785A46"/>
<stop offset="1" stop-color="#9C7256" stop-opacity="0"/>
</linearGradient>
<linearGradient id="paint21_linear_15877_13478" x1="228.2" y1="55.6739" x2="222.806" y2="67.0726" gradientUnits="userSpaceOnUse">
<stop stop-color="#D5D5D5"/>
<stop offset="1" stop-color="#D5D5D5" stop-opacity="0"/>
</linearGradient>
<linearGradient id="paint22_linear_15877_13478" x1="219.817" y1="80.7428" x2="203.232" y2="75.6038" gradientUnits="userSpaceOnUse">
<stop stop-color="#878380"/>
<stop offset="0.517031" stop-color="#878380" stop-opacity="0.482969"/>
<stop offset="1" stop-color="#878380" stop-opacity="0"/>
</linearGradient>
<linearGradient id="paint23_linear_15877_13478" x1="177.669" y1="62.9779" x2="174.114" y2="131.693" gradientUnits="userSpaceOnUse">
<stop stop-color="#FBFBFB"/>
<stop offset="1" stop-color="#EEEEEF"/>
</linearGradient>
<linearGradient id="paint24_linear_15877_13478" x1="208.172" y1="91.2202" x2="164.353" y2="123.97" gradientUnits="userSpaceOnUse">
<stop stop-color="#CFCFCF"/>
<stop offset="1" stop-color="#D9D9D9" stop-opacity="0"/>
</linearGradient>
<linearGradient id="paint25_linear_15877_13478" x1="158" y1="79.2519" x2="151.895" y2="98.2109" gradientUnits="userSpaceOnUse">
<stop stop-color="#6B4D38"/>
<stop offset="1" stop-color="#6B4D38" stop-opacity="0"/>
</linearGradient>
<linearGradient id="paint26_linear_15877_13478" x1="199.492" y1="101.89" x2="197.821" y2="113.016" gradientUnits="userSpaceOnUse">
<stop stop-color="#5B4332"/>
<stop offset="1" stop-color="#5B4332" stop-opacity="0"/>
</linearGradient>
<linearGradient id="paint27_linear_15877_13478" x1="176.191" y1="83.4559" x2="173.718" y2="115.239" gradientUnits="userSpaceOnUse">
<stop stop-color="#9A7054"/>
<stop offset="0.699576" stop-color="#D7CAC2"/>
<stop offset="1" stop-color="#F1F1F2"/>
</linearGradient>
<linearGradient id="paint28_linear_15877_13478" x1="176.19" y1="84.3778" x2="175.025" y2="102.304" gradientUnits="userSpaceOnUse">
<stop stop-color="#9B7154"/>
<stop offset="1" stop-color="white" stop-opacity="0"/>
</linearGradient>
<linearGradient id="paint29_linear_15877_13478" x1="173.822" y1="112.647" x2="167.942" y2="113.182" gradientUnits="userSpaceOnUse">
<stop stop-color="#DBD7D7"/>
<stop offset="1" stop-color="#DBD7D7" stop-opacity="0"/>
</linearGradient>
<clipPath id="clip0_15877_13478">
<rect width="11.8783" height="9.44325" fill="white" transform="translate(159.687 133.227)"/>
</clipPath>
</defs>
</svg>
