<svg width="20" height="20" viewBox="0 0 20 20" fill="none" xmlns="http://www.w3.org/2000/svg">
<g clip-path="url(#clip0_15877_11230)">
<path d="M10 18C11.1038 18 11.9991 17.1047 11.9991 16H8.00096C8.00096 17.1047 8.89627 18 10 18ZM16.731 13.3216C16.1272 12.6728 14.9975 11.6969 14.9975 8.5C14.9975 6.07188 13.295 4.12812 10.9994 3.65125V3C10.9994 2.44781 10.5519 2 10 2C9.44815 2 9.00065 2.44781 9.00065 3V3.65125C6.70502 4.12812 5.00252 6.07188 5.00252 8.5C5.00252 11.6969 3.87283 12.6728 3.26908 13.3216C3.08158 13.5231 2.99846 13.7641 3.00002 14C3.00346 14.5125 3.40565 15 4.00315 15H15.9969C16.5944 15 16.9969 14.5125 17 14C17.0016 13.7641 16.9185 13.5228 16.731 13.3216Z" fill="#6565F2"/>
</g>
<defs>
<clipPath id="clip0_15877_11230">
<rect width="14" height="16" fill="white" transform="translate(3 2)"/>
</clipPath>
</defs>
</svg>
