<svg width="16" height="16" viewBox="0 0 16 16" fill="none" xmlns="http://www.w3.org/2000/svg">
<g clip-path="url(#clip0_15877_11266)">
<path d="M8 2.75C4.68594 2.75 2 4.93203 2 7.625C2 8.7875 2.50156 9.85156 3.33594 10.6883C3.04297 11.8695 2.06328 12.9219 2.05156 12.9336C2 12.9875 1.98594 13.0672 2.01641 13.1375C2.04688 13.2078 2.1125 13.25 2.1875 13.25C3.74141 13.25 4.90625 12.5047 5.48281 12.0453C6.24922 12.3336 7.1 12.5 8 12.5C11.3141 12.5 14 10.318 14 7.625C14 4.93203 11.3141 2.75 8 2.75Z" fill="#383842"/>
</g>
<defs>
<clipPath id="clip0_15877_11266">
<rect width="12" height="10.5" fill="white" transform="translate(2 2.75)"/>
</clipPath>
</defs>
</svg>
