<svg width="16" height="17" viewBox="0 0 16 17" fill="none" xmlns="http://www.w3.org/2000/svg">
<g clip-path="url(#clip0_15875_6155)">
<path d="M7.99994 11.2002C6.57776 11.2002 5.42651 10.0994 5.32057 8.70442L3.35371 7.18436C3.09514 7.50873 2.85721 7.85167 2.66521 8.22667C2.62232 8.31151 2.59997 8.40525 2.59997 8.50032C2.59997 8.59539 2.62232 8.68913 2.66521 8.77398C3.68202 10.7579 5.69501 12.1002 7.99994 12.1002C8.5045 12.1002 8.99125 12.0252 9.46037 11.9041L8.48744 11.1513C8.32676 11.1823 8.16359 11.1987 7.99994 11.2002ZM13.884 12.2896L11.8112 10.6876C12.4409 10.157 12.9588 9.50641 13.3347 8.77379C13.3776 8.68895 13.3999 8.59521 13.3999 8.50014C13.3999 8.40507 13.3776 8.31133 13.3347 8.22648C12.3179 6.24255 10.3049 4.90024 7.99994 4.90024C7.0346 4.90141 6.08494 5.14443 5.2377 5.60711L2.85233 3.76343C2.82123 3.73923 2.78566 3.72139 2.74765 3.71094C2.70965 3.70048 2.66996 3.69762 2.63085 3.70252C2.59174 3.70741 2.55398 3.71996 2.51973 3.73945C2.48547 3.75895 2.45539 3.785 2.43121 3.81612L2.06315 4.28993C2.01432 4.35274 1.99244 4.43237 2.00232 4.51131C2.0122 4.59025 2.05303 4.66203 2.11583 4.71087L13.1476 13.237C13.1787 13.2612 13.2142 13.2791 13.2522 13.2895C13.2902 13.3 13.3299 13.3028 13.369 13.2979C13.4081 13.2931 13.4459 13.2805 13.4802 13.261C13.5144 13.2415 13.5445 13.2155 13.5687 13.1843L13.9369 12.7105C13.9857 12.6477 14.0076 12.5681 13.9977 12.4891C13.9877 12.4102 13.9469 12.3384 13.884 12.2896ZM10.4393 9.6271L9.70244 9.05748C9.76449 8.87813 9.79741 8.68999 9.79994 8.50023C9.80359 8.2224 9.74204 7.94759 9.62023 7.69787C9.49841 7.44815 9.31973 7.23048 9.09853 7.06234C8.87733 6.8942 8.61978 6.78028 8.34657 6.72974C8.07335 6.67919 7.79209 6.69343 7.52538 6.7713C7.63844 6.9245 7.6996 7.10982 7.69994 7.30023C7.69714 7.3636 7.68746 7.42647 7.67107 7.48773L6.29088 6.42105C6.77032 6.0204 7.37514 5.8007 7.99994 5.80024C8.35456 5.80004 8.70575 5.86974 9.03342 6.00536C9.36108 6.14098 9.65881 6.33985 9.90956 6.59061C10.1603 6.84136 10.3592 7.13909 10.4948 7.46675C10.6304 7.79442 10.7001 8.14561 10.6999 8.50023C10.6999 8.90579 10.6007 9.28379 10.4393 9.62729V9.6271Z" fill="#919196"/>
</g>
<defs>
<clipPath id="clip0_15875_6155">
<rect width="12" height="9.60007" fill="white" transform="translate(2 3.7002)"/>
</clipPath>
</defs>
</svg>
