<svg width="16" height="16" viewBox="0 0 16 16" fill="none" xmlns="http://www.w3.org/2000/svg">
<g clip-path="url(#clip0_16519_1769)">
<path d="M13.9275 7.69584C12.7977 5.49146 10.561 4 8 4C5.43895 4 3.20166 5.4925 2.07249 7.69605C2.02483 7.79032 2 7.89448 2 8.00011C2 8.10575 2.02483 8.2099 2.07249 8.30417C3.20228 10.5086 5.43895 12 8 12C10.561 12 12.7983 10.5075 13.9275 8.30397C13.9752 8.20969 14 8.10554 14 7.9999C14 7.89427 13.9752 7.79011 13.9275 7.69584ZM8 11C7.40665 11 6.82663 10.8241 6.33329 10.4944C5.83994 10.1648 5.45542 9.69624 5.22836 9.14806C5.00129 8.59988 4.94188 7.99668 5.05764 7.41474C5.17339 6.83279 5.45912 6.29824 5.87868 5.87868C6.29823 5.45912 6.83278 5.1734 7.41473 5.05765C7.99667 4.94189 8.59987 5.0013 9.14805 5.22836C9.69623 5.45543 10.1648 5.83995 10.4944 6.33329C10.8241 6.82664 11 7.40666 11 8.00001C11.0002 8.39403 10.9227 8.78422 10.772 9.14829C10.6213 9.51235 10.4004 9.84315 10.1218 10.1218C9.84314 10.4004 9.51234 10.6213 9.14828 10.772C8.78422 10.9227 8.39402 11.0002 8 11ZM8 6C7.82149 6.0025 7.64412 6.02906 7.47271 6.07896C7.614 6.27098 7.68181 6.50727 7.66382 6.74499C7.64584 6.98271 7.54326 7.20612 7.37469 7.37469C7.20611 7.54327 6.98271 7.64585 6.74499 7.66383C6.50727 7.68182 6.27097 7.61401 6.07895 7.47271C5.96961 7.87555 5.98935 8.30252 6.13539 8.69355C6.28143 9.08458 6.54641 9.41996 6.89304 9.6525C7.23967 9.88504 7.6505 10.003 8.0677 9.98984C8.4849 9.97667 8.88746 9.83299 9.21873 9.57903C9.54999 9.32508 9.79328 8.97364 9.91434 8.57417C10.0354 8.17471 10.0282 7.74734 9.89361 7.35221C9.75906 6.95708 9.50399 6.6141 9.1643 6.37153C8.82461 6.12896 8.41741 5.99902 8 6Z" fill="#919196"/>
</g>
<defs>
<clipPath id="clip0_16519_1769">
<rect width="12" height="8.00002" fill="white" transform="translate(2 4)"/>
</clipPath>
</defs>
</svg>
