<svg width="16" height="17" viewBox="0 0 16 17" fill="none" xmlns="http://www.w3.org/2000/svg">
<g clip-path="url(#clip0_18006_447)">
<path d="M2.35144 14.9859C0.5255 13.1018 0.559531 10.0637 2.39475 8.18647L8.94975 1.48144C10.3346 0.064813 12.5857 0.0646881 13.9707 1.48144C15.3423 2.88438 15.3439 5.14797 13.9707 6.55256L8.25669 12.3917C7.32372 13.346 5.79941 13.3327 4.88225 12.3605C3.99866 11.4239 4.027 9.93947 4.92762 9.01822L9.41959 4.42963C9.61278 4.23231 9.92934 4.22894 10.1267 4.42209L10.8411 5.12144C11.0384 5.31463 11.0417 5.63119 10.8486 5.8285L6.35709 10.4167C6.20297 10.5743 6.19347 10.8363 6.33684 10.9883C6.47347 11.1331 6.68825 11.1355 6.82709 10.9934L12.5411 5.15435C13.154 4.52741 13.154 3.50669 12.5408 2.87941C11.9411 2.26606 10.9796 2.26575 10.3797 2.87941L3.82469 9.58441C2.73834 10.6957 2.72159 12.4944 3.78747 13.5942C4.85028 14.6908 6.56825 14.6922 7.63303 13.6031L13.0099 8.10316C13.2029 7.90569 13.5195 7.90213 13.717 8.09516L14.4319 8.79403C14.6293 8.98706 14.6329 9.30363 14.4399 9.50109L9.063 15.001C7.20125 16.9053 4.18978 16.8828 2.35144 14.9859Z" fill="#68686F"/>
</g>
<defs>
<clipPath id="clip0_18006_447">
<rect width="16" height="16" fill="white" transform="translate(0 0.418945)"/>
</clipPath>
</defs>
</svg>
