<svg width="24" height="24" viewBox="0 0 24 24" xmlns="http://www.w3.org/2000/svg">
<path d="M21.9933 11.9824C21.9933 12.6152 21.4725 13.1109 20.8822 13.1109H19.771L19.7953 18.7395C19.7953 18.8379 19.7884 18.9293 19.778 19.0242V19.5938C19.778 20.3707 19.1564 21 18.389 21H17.8335C17.7953 21 17.7571 20.9684 17.7189 20.9965C17.6703 20.9684 17.6217 21 17.5731 21H15.6112C14.8438 21 14.2223 20.3707 14.2223 19.5938V16.5C14.2223 15.8777 13.7257 15.375 13.1111 15.375H10.8889C10.2743 15.375 9.77772 15.8777 9.77772 16.5V19.5938C9.77772 20.3707 9.15618 21 8.3888 21H6.44778C6.3957 21 6.34361 20.9965 6.29153 20.993C6.24986 20.9965 6.20819 21 6.16652 21H5.61095C4.84392 21 4.22203 20.3707 4.22203 19.5938V15.6562C4.22203 15.6246 4.22307 15.5895 4.22516 15.5578V13.1109H3.11263C2.48657 13.1109 1.99976 12.6152 1.99976 11.9824C1.99976 11.666 2.10406 11.3848 2.34733 11.1387L11.25 3.28181C11.493 3.03523 11.7708 3 12.0139 3C12.257 3 12.5347 3.07045 12.7465 3.24659L21.6113 11.1387C21.8891 11.3848 22.0315 11.666 21.9933 11.9824Z" fill="currentColor"/>
</svg>
