<svg width="18" height="17" viewBox="0 0 18 17" fill="none" xmlns="http://www.w3.org/2000/svg">
<g clip-path="url(#clip0_18006_454)">
<path d="M5.61458 3.99186C4.75163 3.99186 4.05208 4.69141 4.05208 5.55436C4.05208 6.41732 4.75163 7.11686 5.61458 7.11686C6.47754 7.11686 7.17708 6.41732 7.17708 5.55436C7.17708 4.69141 6.47721 3.99186 5.61458 3.99186ZM15.2207 1.12728H2.7207C1.59928 1.12728 0.66637 2.0599 0.66637 3.21061V13.6273C0.66637 14.778 1.59899 15.7106 2.72041 15.7106H15.2204C16.3711 15.7106 17.3037 14.778 17.3037 13.6273V3.21061C17.304 2.0599 16.3991 1.12728 15.2207 1.12728ZM15.7415 13.4092L11.2884 7.35775C11.207 7.20801 11.0215 7.11686 10.8229 7.11686C10.6239 7.11686 10.4382 7.20697 10.3278 7.35707L6.85775 12.0478L5.65039 10.5472C5.53838 10.4079 5.35957 10.3255 5.1696 10.3255C4.97943 10.3255 4.80078 10.4078 4.68848 10.5472L2.23014 13.6009C2.23014 13.5999 2.23014 13.6018 2.23014 13.6009L2.22884 3.21061C2.22884 2.92344 2.4625 2.68978 2.74967 2.68978H15.2497C15.5368 2.68978 15.7705 2.92344 15.7705 3.21061V13.4092H15.7415Z" fill="#68686F"/>
</g>
<defs>
<clipPath id="clip0_18006_454">
<rect width="16.6667" height="16.6667" fill="white" transform="translate(0.666668 0.0856133)"/>
</clipPath>
</defs>
</svg>
