<svg width="17" height="16" viewBox="0 0 17 16" fill="none" xmlns="http://www.w3.org/2000/svg">
<g clip-path="url(#clip0_15875_7982)">
<path d="M13.8929 6.71429H10.0357V2.85714C10.0357 2.38384 9.65188 2 9.17857 2H8.32143C7.84812 2 7.46429 2.38384 7.46429 2.85714V6.71429H3.60714C3.13384 6.71429 2.75 7.09812 2.75 7.57143V8.42857C2.75 8.90188 3.13384 9.28571 3.60714 9.28571H7.46429V13.1429C7.46429 13.6162 7.84812 14 8.32143 14H9.17857C9.65188 14 10.0357 13.6162 10.0357 13.1429V9.28571H13.8929C14.3662 9.28571 14.75 8.90188 14.75 8.42857V7.57143C14.75 7.09812 14.3662 6.71429 13.8929 6.71429Z" fill="#07C586"/>
</g>
<defs>
<clipPath id="clip0_15875_7982">
<rect width="12" height="12" fill="white" transform="translate(2.75 2)"/>
</clipPath>
</defs>
</svg>
