<svg width="24" height="24" viewBox="0 0 24 24" xmlns="http://www.w3.org/2000/svg">
<g clip-path="url(#clip0_16519_1813)">
<path d="M12 12C14.8407 12 17.143 9.76172 17.143 7C17.143 4.23828 14.8407 2 12 2C9.1593 2 6.857 4.23828 6.857 7C6.857 9.76172 9.1593 12 12 12ZM15.6001 13.25H14.9291C14.0371 13.6484 13.0447 13.875 12 13.875C10.9553 13.875 9.96691 13.6484 9.0709 13.25H8.3999C5.41857 13.25 2.99976 15.6016 2.99976 18.5V20.125C2.99976 21.1602 3.86362 22 4.92838 22H19.0716C20.1364 22 21.0002 21.1602 21.0002 20.125V18.5C21.0002 15.6016 18.5814 13.25 15.6001 13.25Z" fill="currentColor"/>
</g>
<defs>
<clipPath id="clip0_16519_1813">
<rect width="18.0005" height="20" fill="currentColor" transform="translate(2.99976 2)"/>
</clipPath>
</defs>
</svg>
