<svg width="17" height="16" viewBox="0 0 17 16" fill="none" xmlns="http://www.w3.org/2000/svg">
<g clip-path="url(#clip0_15877_11083)">
<path d="M14.75 8C14.75 11.3144 12.0635 14 8.75 14C5.43652 14 2.75 11.3144 2.75 8C2.75 4.68749 5.43652 2 8.75 2C12.0635 2 14.75 4.68749 14.75 8ZM8.91101 3.98387C7.59253 3.98387 6.75161 4.53928 6.09127 5.5264C6.00573 5.65429 6.03435 5.82677 6.15696 5.91974L6.99645 6.55627C7.12238 6.65177 7.3018 6.62905 7.39964 6.50494C7.83183 5.95676 8.12818 5.63888 8.786 5.63888C9.28025 5.63888 9.8916 5.95698 9.8916 6.43625C9.8916 6.79857 9.59249 6.98464 9.10448 7.25825C8.53536 7.57729 7.78226 7.97438 7.78226 8.96774V9.06452C7.78226 9.22485 7.91225 9.35484 8.07258 9.35484H9.42742C9.58775 9.35484 9.71774 9.22485 9.71774 9.06452V9.03227C9.71774 8.34367 11.7303 8.315 11.7303 6.45161C11.7303 5.04834 10.2747 3.98387 8.91101 3.98387ZM8.75 9.98387C8.13633 9.98387 7.6371 10.4831 7.6371 11.0968C7.6371 11.7104 8.13633 12.2097 8.75 12.2097C9.36367 12.2097 9.8629 11.7104 9.8629 11.0968C9.8629 10.4831 9.36367 9.98387 8.75 9.98387Z" fill="#FFC31F"/>
</g>
<defs>
<clipPath id="clip0_15877_11083">
<rect width="12" height="12" fill="white" transform="translate(2.75 2)"/>
</clipPath>
</defs>
</svg>
