<svg width="20" height="21" viewBox="0 0 20 21" xmlns="http://www.w3.org/2000/svg">
<g clip-path="url(#clip0_17995_2091)">
<path d="M17.6823 10.4218C17.6823 10.2611 17.6358 10.1039 17.5485 9.96905C17.4612 9.83419 17.3368 9.72744 17.1903 9.66164L3.65114 3.55744L3.64918 3.55548C3.49238 3.48579 3.31789 3.4662 3.14954 3.49939C2.98119 3.53258 2.82719 3.61693 2.70857 3.74092C2.58996 3.86491 2.51251 4.02249 2.4868 4.19214C2.46109 4.3618 2.48838 4.53525 2.56495 4.68881L2.57182 4.70207L4.50335 9.51261C4.54914 9.59832 4.61661 9.67052 4.69903 9.722C4.78145 9.77349 4.87593 9.80245 4.97304 9.80601L15.4247 10.175C15.457 10.175 15.4889 10.1814 15.5187 10.1937C15.5485 10.2061 15.5755 10.2241 15.5983 10.2469C15.6211 10.2697 15.6392 10.2968 15.6515 10.3266C15.6639 10.3564 15.6702 10.3883 15.6702 10.4206C15.6702 10.4528 15.6639 10.4847 15.6515 10.5145C15.6392 10.5443 15.6211 10.5714 15.5983 10.5942C15.5755 10.617 15.5485 10.635 15.5187 10.6474C15.4889 10.6597 15.457 10.6661 15.4247 10.6661L4.97525 11.0324C4.87814 11.036 4.78366 11.0649 4.70124 11.1164C4.61882 11.1679 4.55135 11.2401 4.50556 11.3258L2.57256 16.1388C2.56912 16.1452 2.56617 16.1511 2.56323 16.1574C2.41419 16.4636 2.4525 16.8231 2.68206 17.0742L2.70661 17.0988C2.82727 17.2208 2.98184 17.3037 3.15025 17.3368C3.31865 17.3698 3.49309 17.3514 3.6509 17.2839L17.1868 11.1819C17.334 11.1166 17.4592 11.0101 17.5471 10.8752C17.635 10.7403 17.682 10.5828 17.6823 10.4218Z" fill="white"/>
</g>
<defs>
<clipPath id="clip0_17995_2091">
<rect width="16.0004" height="14.2222" fill="white" transform="translate(1.99976 3.30894)"/>
</clipPath>
</defs>
</svg>
