<svg width="16" height="16" viewBox="0 0 16 16" fill="none" xmlns="http://www.w3.org/2000/svg">
<path d="M7.66669 11.3267C8.03544 11.3267 8.33336 11.0287 8.33336 10.66C8.33336 10.2912 8.03544 9.99332 7.66669 9.99332H5.33336C4.96461 9.99332 4.66669 9.69541 4.66669 9.32666V6.65999H5.33336C5.60211 6.65999 5.84586 6.49749 5.95003 6.24749C6.05419 5.99749 5.99586 5.71207 5.80628 5.52041L4.47294 4.18707C4.21253 3.92666 3.78961 3.92666 3.52919 4.18707L2.19586 5.52041C2.00419 5.71207 1.94794 5.99749 2.05211 6.24749C2.15628 6.49749 2.39794 6.65999 2.66878 6.65999H3.33544V9.32666C3.33544 10.4308 4.23128 11.3267 5.33544 11.3267H7.66669ZM8.33336 4.65999C7.96461 4.65999 7.66669 4.95791 7.66669 5.32666C7.66669 5.69541 7.96461 5.99332 8.33336 5.99332H10.6667C11.0354 5.99332 11.3334 6.29124 11.3334 6.65999V9.32666H10.6667C10.3979 9.32666 10.1542 9.48916 10.05 9.73916C9.94586 9.98916 10.0042 10.2746 10.1938 10.4662L11.5271 11.7996C11.7875 12.06 12.2104 12.06 12.4709 11.7996L13.8042 10.4662C13.9959 10.2746 14.0521 9.98916 13.9479 9.73916C13.8438 9.48916 13.6021 9.32666 13.3313 9.32666H12.6646V6.65999C12.6646 5.55582 11.7688 4.65999 10.6646 4.65999H8.33336Z" fill="#383842"/>
</svg>
