<svg width="16" height="16" viewBox="0 0 16 16" fill="none" xmlns="http://www.w3.org/2000/svg">
<g clip-path="url(#clip0_15875_8142)">
<path d="M8.00001 6.25806C8.96184 6.25806 9.74001 7.0371 9.74001 8C9.74001 8.9629 8.96184 9.74194 8.00001 9.74194C7.03818 9.74194 6.26001 8.9629 6.26001 8C6.26001 7.0371 7.03818 6.25806 8.00001 6.25806ZM6.26001 3.74194C6.26001 4.70484 7.03818 5.48387 8.00001 5.48387C8.96184 5.48387 9.74001 4.70484 9.74001 3.74194C9.74001 2.77903 8.96184 2 8.00001 2C7.03818 2 6.26001 2.77903 6.26001 3.74194ZM6.26001 12.2581C6.26001 13.221 7.03818 14 8.00001 14C8.96184 14 9.74001 13.221 9.74001 12.2581C9.74001 11.2952 8.96184 10.5161 8.00001 10.5161C7.03818 10.5161 6.26001 11.2952 6.26001 12.2581Z" fill="#BABABD"/>
</g>
<defs>
<clipPath id="clip0_15875_8142">
<rect width="3.48" height="12" fill="white" transform="translate(6.26001 2)"/>
</clipPath>
</defs>
</svg>
