<svg width="16" height="16" viewBox="0 0 16 16" fill="none" xmlns="http://www.w3.org/2000/svg">
<g clip-path="url(#clip0_15877_11257)">
<path d="M2.93387 8.89789L2.33895 8.30331C2.08705 8.05156 2.08705 7.64446 2.33895 7.39538L7.5458 2.18882C7.7977 1.93706 8.20503 1.93706 8.45425 2.18882L13.6611 7.3927C13.913 7.64446 13.913 8.05156 13.6611 8.30064L13.0662 8.89521C12.8116 9.14965 12.3962 9.14429 12.147 8.8845L9.07328 5.65986V13.3572C9.07328 13.7134 8.78655 14 8.43013 14H7.5726C7.21618 14 6.92944 13.7134 6.92944 13.3572V5.65986L3.85304 8.88718C3.60381 9.14965 3.18845 9.155 2.93387 8.89789Z" fill="#383842"/>
</g>
<defs>
<clipPath id="clip0_15877_11257">
<rect width="11.7" height="12" fill="white" transform="translate(2.15002 2)"/>
</clipPath>
</defs>
</svg>
